<svg id="svg" version="1.1" xmlns="http://www.w3.org/2000/svg" xmlns:xlink="http://www.w3.org/1999/xlink" width="400" height="200.0468713381767" viewBox="0, 0, 400,200.0468713381767"><g id="svgg"><path id="path0" d="M150.583 78.280 C 150.137 78.404,149.309 78.991,149.000 79.404 C 148.356 80.265,148.359 80.182,148.359 100.667 C 148.359 121.706,148.339 121.174,149.131 122.081 C 150.447 123.586,154.991 123.514,155.858 121.974 C 156.711 120.457,156.666 121.637,156.667 100.645 C 156.667 80.025,156.700 81.009,155.952 79.518 C 155.431 78.480,152.395 77.780,150.583 78.280 M188.550 78.573 C 187.834 78.907,187.610 79.122,187.259 79.816 L 186.833 80.656 186.833 100.680 L 186.833 120.705 187.291 121.547 C 188.559 123.875,193.409 123.803,194.566 121.438 L 195.000 120.550 195.003 113.233 C 195.006 103.127,195.240 100.962,196.550 98.886 C 198.856 95.233,205.112 95.557,207.018 99.428 C 207.878 101.175,207.881 101.206,207.990 111.083 C 208.103 121.218,208.089 121.080,209.058 122.145 C 210.763 124.022,215.283 123.361,216.112 121.114 C 216.362 120.436,216.408 102.092,216.165 99.972 C 215.316 92.564,211.772 88.907,205.246 88.705 C 200.656 88.564,197.420 90.111,195.534 93.346 L 195.007 94.250 195.004 87.491 L 195.000 80.732 194.577 79.882 C 193.744 78.213,190.731 77.558,188.550 78.573 M337.926 78.288 C 337.247 78.460,336.401 79.148,336.000 79.852 L 335.583 80.583 335.495 87.583 C 335.446 91.433,335.390 94.488,335.370 94.371 C 335.207 93.427,332.737 90.852,331.238 90.064 C 327.706 88.209,323.089 88.202,319.667 90.045 C 315.972 92.035,313.898 95.133,312.554 100.667 C 312.110 102.493,312.109 109.832,312.552 111.667 C 313.538 115.752,314.848 118.344,316.943 120.359 C 317.765 121.149,319.607 122.500,319.863 122.500 C 319.940 122.500,320.322 122.649,320.710 122.831 C 325.543 125.098,332.763 123.064,335.035 118.796 L 335.414 118.083 335.515 119.500 C 335.666 121.630,336.215 122.421,337.887 122.917 C 340.222 123.611,342.563 122.914,343.474 121.253 C 343.816 120.629,343.998 82.035,343.665 80.687 C 343.165 78.665,340.622 77.602,337.926 78.288 M228.649 80.555 C 227.054 81.271,226.780 82.020,225.903 88.083 C 225.664 89.733,225.331 92.021,225.164 93.167 C 224.996 94.313,224.661 96.600,224.421 98.250 C 224.180 99.900,223.838 102.225,223.661 103.417 C 223.484 104.608,223.147 106.896,222.911 108.500 C 222.262 112.918,221.869 115.575,221.591 117.417 C 220.919 121.876,221.775 123.167,225.408 123.167 C 228.943 123.167,229.638 122.277,230.418 116.750 C 230.638 115.192,230.974 112.867,231.166 111.583 C 231.357 110.300,231.696 107.975,231.919 106.417 C 232.142 104.858,232.478 102.571,232.666 101.333 C 232.854 100.096,233.156 97.996,233.336 96.667 C 233.865 92.769,233.825 92.887,234.179 94.167 C 234.343 94.763,234.665 95.925,234.894 96.750 C 235.123 97.575,235.431 98.700,235.579 99.250 C 235.726 99.800,235.914 100.438,235.996 100.667 C 236.078 100.896,236.417 102.096,236.749 103.333 C 237.082 104.571,237.420 105.733,237.501 105.917 C 237.582 106.100,237.795 106.813,237.973 107.500 C 238.152 108.188,238.461 109.313,238.660 110.000 C 238.859 110.688,239.200 111.888,239.417 112.667 C 239.634 113.446,239.966 114.627,240.156 115.292 C 240.345 115.956,240.640 117.006,240.811 117.625 C 242.145 122.452,242.873 123.166,246.463 123.167 C 248.725 123.169,249.618 122.879,250.523 121.852 C 251.269 121.003,251.370 120.721,252.917 115.167 C 253.134 114.388,253.471 113.188,253.667 112.500 C 253.862 111.813,254.200 110.612,254.417 109.833 C 254.798 108.464,254.990 107.793,255.924 104.583 C 256.448 102.778,256.888 101.232,257.417 99.333 C 257.634 98.554,257.971 97.354,258.167 96.667 C 258.363 95.979,258.654 94.930,258.813 94.335 L 259.104 93.252 259.303 94.251 C 259.412 94.801,259.617 96.075,259.757 97.083 C 260.025 99.002,260.608 103.015,261.173 106.833 C 261.356 108.071,261.690 110.358,261.916 111.917 C 263.072 119.916,263.188 120.572,263.564 121.289 C 264.276 122.649,265.387 123.167,267.592 123.167 C 271.099 123.167,272.169 121.684,271.501 117.750 C 271.423 117.292,271.168 115.604,270.934 114.000 C 270.700 112.396,270.358 110.071,270.174 108.833 C 269.990 107.596,269.649 105.271,269.417 103.667 C 269.184 102.063,268.849 99.775,268.672 98.583 C 268.495 97.392,268.157 95.104,267.922 93.500 C 267.686 91.896,267.347 89.608,267.168 88.417 C 266.989 87.225,266.727 85.470,266.586 84.517 C 266.044 80.880,265.469 80.437,261.180 80.363 C 256.648 80.285,255.998 80.504,255.031 82.430 C 254.716 83.056,254.539 83.635,253.661 86.917 C 253.281 88.338,252.637 90.677,252.193 92.250 C 252.012 92.892,251.710 93.979,251.523 94.667 C 251.336 95.354,250.984 96.629,250.742 97.500 C 250.499 98.371,250.132 99.721,249.927 100.500 C 249.722 101.279,249.508 102.029,249.450 102.167 C 249.392 102.304,249.236 102.867,249.102 103.417 C 248.847 104.464,248.337 106.332,247.576 109.000 C 247.328 109.871,246.992 111.108,246.831 111.750 C 246.518 112.991,246.481 112.974,246.102 111.417 C 245.848 110.374,245.447 108.899,244.425 105.250 C 244.091 104.058,243.751 102.821,243.670 102.500 C 243.588 102.179,243.361 101.354,243.166 100.667 C 242.970 99.979,242.626 98.742,242.402 97.917 C 241.538 94.736,241.346 94.036,240.941 92.583 C 240.711 91.758,240.361 90.521,240.164 89.833 C 239.967 89.146,239.630 87.908,239.415 87.083 C 238.699 84.333,238.484 83.587,238.260 83.083 C 238.137 82.808,237.989 82.425,237.931 82.232 C 237.798 81.789,236.650 80.716,236.077 80.498 C 235.459 80.263,229.193 80.311,228.649 80.555 M168.326 82.398 C 165.667 83.191,165.003 84.264,165.001 87.770 L 165.000 89.124 163.666 89.240 C 161.532 89.426,160.770 90.325,160.775 92.650 C 160.780 94.980,161.692 96.036,163.791 96.142 L 165.000 96.203 165.006 103.060 C 165.014 112.587,165.276 115.472,166.342 117.790 C 166.520 118.178,166.667 118.536,166.667 118.585 C 166.667 119.148,168.736 121.400,169.856 122.057 C 172.946 123.868,179.388 124.247,181.083 122.717 C 181.817 122.055,182.252 120.386,181.997 119.208 C 181.572 117.245,180.931 116.726,178.640 116.488 C 173.965 116.005,173.500 114.837,173.500 103.583 L 173.500 96.192 176.722 96.138 L 179.944 96.083 180.559 95.614 C 181.673 94.763,182.048 93.512,181.761 91.602 C 181.482 89.736,180.573 89.317,176.561 89.205 L 173.539 89.120 173.472 86.483 C 173.362 82.176,172.189 81.245,168.326 82.398 M87.266 88.845 C 86.633 88.932,85.787 89.116,85.385 89.252 C 84.984 89.388,84.576 89.500,84.479 89.500 C 84.383 89.500,83.818 89.725,83.224 90.000 C 82.630 90.275,82.105 90.500,82.057 90.500 C 81.754 90.500,79.357 92.370,78.504 93.272 C 70.218 102.033,73.692 120.276,84.121 122.769 C 84.375 122.830,84.658 122.933,84.750 122.999 C 84.955 123.146,86.413 123.414,88.447 123.679 C 90.227 123.910,94.765 123.468,95.417 122.999 C 95.508 122.933,95.808 122.827,96.083 122.762 C 97.959 122.323,101.003 120.205,102.333 118.413 C 104.347 115.702,104.266 114.270,102.043 113.316 C 100.230 112.537,98.619 112.717,97.333 113.844 C 95.104 115.798,94.028 116.373,91.871 116.764 C 86.819 117.679,82.351 114.100,82.336 109.125 L 82.333 108.333 92.176 108.333 C 105.358 108.333,105.240 108.378,104.951 103.516 C 104.540 96.617,100.266 90.782,94.574 89.351 C 94.212 89.260,93.617 89.108,93.250 89.013 C 92.283 88.762,88.607 88.659,87.266 88.845 M120.917 88.772 C 116.506 89.443,111.878 93.593,110.904 97.750 C 110.840 98.025,110.731 98.325,110.662 98.417 C 110.528 98.594,110.048 100.698,109.825 102.083 C 109.651 103.164,109.651 109.169,109.825 110.250 C 110.678 115.544,113.359 120.374,116.254 121.833 C 116.527 121.971,116.849 122.177,116.970 122.292 C 117.091 122.406,117.261 122.500,117.347 122.500 C 117.433 122.500,117.822 122.649,118.210 122.831 C 120.575 123.941,126.036 124.058,127.398 123.029 C 127.500 122.952,127.846 122.786,128.167 122.659 C 129.694 122.058,131.934 120.058,132.618 118.683 L 132.917 118.083 133.010 119.417 C 133.162 121.590,133.729 122.425,135.387 122.917 C 137.743 123.617,140.053 122.928,140.975 121.250 C 141.328 120.609,141.500 93.260,141.162 91.693 C 140.798 90.008,139.467 89.167,137.167 89.167 C 134.232 89.167,133.001 90.365,132.999 93.222 C 132.998 94.447,132.976 94.542,132.779 94.167 C 130.709 90.227,125.857 88.020,120.917 88.772 M288.750 88.822 C 286.821 89.135,282.333 90.900,282.333 91.346 C 282.333 91.419,282.202 91.521,282.042 91.575 C 281.158 91.870,278.888 94.461,277.856 96.350 C 275.034 101.516,274.882 109.977,277.512 115.417 C 280.489 121.574,287.465 124.872,294.625 123.508 C 296.798 123.094,299.597 122.079,300.167 121.498 C 300.212 121.452,300.550 121.217,300.917 120.978 C 310.528 114.697,309.305 94.220,299.086 90.334 C 298.855 90.246,298.343 90.028,297.949 89.848 C 295.888 88.909,291.343 88.402,288.750 88.822 M363.158 88.826 C 362.075 88.965,359.736 89.589,359.417 89.824 C 359.325 89.892,358.925 90.073,358.528 90.228 C 350.510 93.343,347.103 106.195,351.786 115.662 C 355.108 122.377,363.311 125.388,371.483 122.892 C 377.510 121.051,382.125 114.373,378.044 113.397 C 377.791 113.337,377.494 113.217,377.385 113.132 C 376.268 112.254,374.090 112.904,372.129 114.699 C 369.222 117.362,364.145 117.623,361.017 115.271 C 359.540 114.160,358.341 111.759,358.074 109.375 L 357.957 108.333 367.905 108.333 C 380.090 108.333,380.168 108.318,380.675 105.878 C 381.474 102.027,379.348 95.956,376.076 92.750 C 373.911 90.628,372.132 89.693,368.917 88.988 C 367.909 88.767,364.393 88.669,363.158 88.826 M91.140 95.245 C 94.547 95.845,97.333 98.910,97.333 102.060 C 97.333 102.309,96.677 102.333,89.822 102.333 C 82.749 102.333,82.316 102.316,82.391 102.042 C 82.435 101.881,82.521 101.450,82.583 101.083 C 83.087 98.091,85.397 95.832,88.540 95.257 C 89.205 95.136,89.750 95.028,89.750 95.018 C 89.750 95.008,90.375 95.111,91.140 95.245 M367.781 95.428 C 370.451 96.021,372.689 98.656,372.965 101.533 L 373.042 102.333 365.605 102.333 C 358.818 102.333,358.167 102.309,358.167 102.060 C 358.167 99.939,360.218 96.804,362.183 95.923 C 364.084 95.070,365.573 94.938,367.781 95.428 M19.667 98.833 L 19.667 101.667 20.417 101.667 L 21.167 101.667 21.167 98.833 L 21.167 96.000 20.417 96.000 L 19.667 96.000 19.667 98.833 M36.167 98.833 L 36.167 101.667 45.750 101.667 L 55.333 101.667 55.333 98.833 L 55.333 96.000 45.750 96.000 L 36.167 96.000 36.167 98.833 M70.333 98.833 L 70.333 101.667 71.083 101.667 L 71.833 101.667 71.833 98.833 L 71.833 96.000 71.083 96.000 L 70.333 96.000 70.333 98.833 M128.250 96.665 C 130.069 97.497,131.499 98.959,132.163 100.667 C 132.287 100.987,132.446 101.326,132.516 101.419 C 132.585 101.512,132.798 102.364,132.988 103.312 C 134.499 110.849,130.206 117.273,124.458 116.077 C 122.893 115.752,122.167 115.512,122.167 115.320 C 122.167 115.236,122.087 115.167,121.990 115.167 C 121.442 115.167,119.845 113.405,119.124 112.005 C 117.571 108.991,117.567 102.897,119.117 100.358 C 120.154 98.660,120.435 98.315,121.481 97.458 C 123.039 96.183,126.346 95.795,128.250 96.665 M293.167 96.341 C 293.958 96.516,295.268 97.107,295.633 97.454 C 295.752 97.567,295.979 97.755,296.138 97.871 C 297.223 98.670,298.420 100.892,298.890 102.979 C 299.407 105.277,299.084 110.271,298.355 111.240 C 298.282 111.337,298.120 111.679,297.995 112.000 C 295.534 118.296,286.548 117.295,284.521 110.500 C 282.086 102.333,286.628 94.894,293.167 96.341 M331.013 96.811 C 332.659 97.622,334.051 99.092,334.663 100.667 C 334.787 100.987,334.945 101.325,335.013 101.417 C 335.610 102.220,335.864 107.108,335.427 109.392 C 333.804 117.872,323.816 118.700,321.064 110.583 C 318.164 102.026,324.313 93.512,331.013 96.811 " stroke="none" fill="#fcfcfc" fill-rule="evenodd"></path><path id="path1" d="M30.485 74.185 C 29.972 74.364,29.334 74.738,29.068 75.016 L 28.583 75.521 28.500 79.596 L 28.417 83.671 27.981 83.266 C 27.555 82.871,26.634 82.490,25.532 82.254 C 24.473 82.027,22.685 82.609,21.875 83.443 L 21.167 84.173 21.167 98.881 L 21.167 113.589 21.572 114.186 C 22.727 115.886,26.498 116.080,28.117 114.522 L 28.483 114.169 28.533 118.210 C 28.583 122.240,28.584 122.251,28.996 122.717 C 30.667 124.609,35.193 124.205,35.996 122.093 C 36.198 121.562,36.193 76.258,35.991 75.726 C 35.406 74.188,32.670 73.422,30.485 74.185 M57.606 74.170 C 56.519 74.512,55.899 74.996,55.573 75.761 C 55.320 76.354,55.244 121.106,55.494 121.980 C 56.150 124.268,60.831 124.719,62.562 122.661 L 63.000 122.141 63.000 118.152 L 63.000 114.164 63.489 114.631 C 65.000 116.075,68.402 115.942,69.792 114.385 L 70.333 113.778 70.333 98.973 L 70.333 84.169 69.613 83.438 C 68.260 82.065,65.290 81.942,63.716 83.194 L 63.083 83.697 63.000 79.614 L 62.917 75.532 62.388 75.027 C 61.323 74.010,59.283 73.644,57.606 74.170 " stroke="none" fill="#1a1a1a" fill-rule="evenodd"></path><path id="path2" d="M36.069 98.833 C 36.069 100.438,36.094 101.094,36.124 100.292 C 36.155 99.490,36.155 98.177,36.124 97.375 C 36.094 96.573,36.069 97.229,36.069 98.833 M55.402 98.833 C 55.402 100.438,55.427 101.094,55.457 100.292 C 55.488 99.490,55.488 98.177,55.457 97.375 C 55.427 96.573,55.402 97.229,55.402 98.833 " stroke="none" fill="#7c7c7c" fill-rule="evenodd"></path><path id="path3" d="" stroke="none" fill="#bcc0100" fill-rule="evenodd"></path><path id="path4" d="" stroke="none" fill="#bcc0100" fill-rule="evenodd"></path></g></svg>