<svg id="svg" version="1.1" xmlns="http://www.w3.org/2000/svg" xmlns:xlink="http://www.w3.org/1999/xlink" width="400" height="400" viewBox="0, 0, 400,400"><g id="svgg"><path id="path0" d="M0.000 200.000 L 0.000 400.000 200.000 400.000 L 400.000 400.000 400.000 200.000 L 400.000 0.000 200.000 0.000 L 0.000 0.000 0.000 200.000 M134.500 75.171 C 137.553 75.909,140.337 77.838,141.346 79.917 L 141.750 80.750 141.833 110.750 L 141.917 140.750 171.083 140.750 L 200.250 140.750 200.333 110.833 L 200.417 80.917 200.823 80.083 C 204.201 73.149,218.713 73.203,222.131 80.162 L 222.583 81.083 222.631 93.331 L 222.679 105.578 223.101 104.831 C 226.757 98.355,240.775 98.673,244.040 105.305 L 244.583 106.410 244.583 149.746 L 244.583 193.083 244.096 194.083 C 240.862 200.723,227.236 201.140,223.167 194.724 L 222.677 193.951 222.630 206.021 L 222.583 218.091 222.039 219.197 C 220.372 222.581,215.320 224.766,210.167 224.331 C 209.479 224.273,208.905 224.231,208.890 224.238 C 208.875 224.244,209.157 225.300,209.516 226.583 C 209.875 227.867,210.351 229.592,210.573 230.417 C 210.796 231.242,211.249 232.892,211.581 234.083 C 211.913 235.275,212.439 237.188,212.750 238.333 C 213.061 239.479,213.815 242.217,214.426 244.417 C 215.037 246.617,215.634 248.792,215.753 249.250 C 215.871 249.708,216.242 251.058,216.576 252.250 C 216.911 253.442,217.439 255.354,217.750 256.500 C 218.061 257.646,218.587 259.558,218.919 260.750 C 219.251 261.942,219.706 263.592,219.931 264.417 C 220.848 267.784,221.000 268.339,221.581 270.417 C 221.915 271.608,222.399 273.371,222.658 274.333 C 223.309 276.750,224.568 281.336,225.267 283.833 C 225.588 284.979,226.077 286.742,226.355 287.750 C 226.632 288.758,227.037 290.221,227.254 291.000 C 227.471 291.779,227.737 292.754,227.846 293.167 L 228.042 293.917 228.440 292.500 C 228.659 291.721,228.983 290.558,229.161 289.917 C 229.338 289.275,229.753 287.775,230.084 286.583 C 230.414 285.392,230.939 283.479,231.250 282.333 C 231.561 281.188,232.087 279.275,232.419 278.083 C 232.751 276.892,233.195 275.279,233.406 274.500 C 233.617 273.721,234.257 271.396,234.829 269.333 C 235.401 267.271,236.081 264.796,236.341 263.833 C 236.600 262.871,237.087 261.108,237.422 259.917 C 237.757 258.725,238.129 257.375,238.247 256.917 C 238.366 256.458,238.952 254.321,239.549 252.167 C 241.707 244.384,243.035 239.567,243.247 238.750 C 243.366 238.292,243.963 236.117,244.574 233.917 C 245.185 231.717,245.939 228.979,246.250 227.833 C 246.561 226.688,247.089 224.775,247.424 223.583 C 247.758 222.392,248.129 221.042,248.247 220.583 C 248.366 220.125,248.952 217.987,249.549 215.833 C 252.254 206.078,253.044 203.204,253.189 202.583 C 254.693 196.126,257.682 192.366,262.417 190.975 C 264.495 190.364,280.331 190.363,282.417 190.974 C 286.389 192.136,288.808 194.751,290.075 199.250 C 290.455 200.598,290.673 201.899,291.585 208.250 C 291.730 209.258,292.030 211.246,292.252 212.667 C 292.475 214.088,292.726 215.813,292.811 216.500 C 292.896 217.188,293.159 219.025,293.396 220.583 C 293.632 222.142,294.056 224.992,294.338 226.917 C 294.620 228.842,295.032 231.617,295.252 233.083 C 295.620 235.533,295.857 237.160,296.586 242.250 C 296.730 243.258,297.030 245.246,297.252 246.667 C 297.475 248.088,297.726 249.813,297.811 250.500 C 297.896 251.188,298.159 253.025,298.396 254.583 C 298.632 256.142,299.056 258.992,299.338 260.917 C 299.620 262.842,300.032 265.617,300.252 267.083 C 300.620 269.533,300.857 271.160,301.586 276.250 C 301.730 277.258,302.030 279.246,302.252 280.667 C 302.475 282.087,302.726 283.813,302.811 284.500 C 302.896 285.188,303.159 287.025,303.396 288.583 C 303.632 290.142,304.056 292.992,304.338 294.917 C 304.620 296.842,305.032 299.617,305.252 301.083 C 305.472 302.550,305.803 304.800,305.987 306.083 C 306.171 307.367,306.451 309.204,306.608 310.167 C 307.929 318.255,305.824 323.002,300.167 324.692 C 298.899 325.071,289.712 325.008,288.427 324.611 C 284.731 323.471,282.169 320.817,280.925 316.840 C 280.436 315.277,280.235 314.049,278.332 301.000 C 278.151 299.762,277.706 296.725,277.342 294.250 C 276.979 291.775,276.563 288.925,276.419 287.917 C 276.276 286.908,275.975 284.883,275.751 283.417 C 275.527 281.950,275.263 280.112,275.164 279.333 C 275.065 278.554,274.875 277.272,274.741 276.483 C 274.608 275.695,274.387 274.232,274.252 273.233 C 274.116 272.234,273.745 269.654,273.426 267.500 C 273.108 265.346,272.691 262.496,272.500 261.167 C 272.309 259.837,271.972 257.550,271.751 256.083 C 271.377 253.597,271.060 251.426,270.414 246.917 C 270.269 245.908,269.973 243.921,269.756 242.500 C 269.539 241.079,269.310 239.504,269.249 239.000 C 269.188 238.496,268.962 236.958,268.747 235.583 C 268.532 234.208,268.266 232.349,268.157 231.452 C 268.047 230.555,267.929 229.849,267.895 229.883 C 267.860 229.918,267.565 230.877,267.239 232.015 C 266.912 233.152,266.430 234.833,266.167 235.750 C 265.904 236.667,265.491 238.129,265.250 239.000 C 264.820 240.554,264.321 242.305,263.341 245.708 C 263.071 246.648,262.130 249.967,261.251 253.083 C 260.371 256.200,259.434 259.500,259.169 260.417 C 258.903 261.333,258.265 263.583,257.751 265.417 C 257.237 267.250,256.599 269.500,256.333 270.417 C 256.067 271.333,255.355 273.846,254.750 276.000 C 254.145 278.154,253.429 280.685,253.158 281.625 C 252.136 285.176,251.123 288.735,250.324 291.583 C 250.041 292.592,249.594 294.167,249.330 295.083 C 249.066 296.000,248.130 299.300,247.251 302.417 C 246.371 305.533,245.435 308.833,245.170 309.750 C 244.904 310.667,244.382 312.488,244.009 313.797 C 242.138 320.364,238.958 323.911,234.178 324.763 C 230.476 325.424,221.766 325.002,219.620 324.058 C 215.135 322.086,213.847 319.947,210.903 309.583 C 209.939 306.192,208.930 302.648,208.659 301.708 C 207.709 298.412,207.185 296.569,206.750 295.000 C 206.509 294.129,206.095 292.667,205.830 291.750 C 205.565 290.833,204.629 287.533,203.749 284.417 C 202.870 281.300,201.934 278.000,201.670 277.083 C 201.406 276.167,200.959 274.592,200.676 273.583 C 199.877 270.735,198.864 267.176,197.842 263.625 C 197.571 262.685,196.855 260.154,196.250 258.000 C 195.645 255.846,194.933 253.333,194.667 252.417 C 194.401 251.500,193.764 249.250,193.251 247.417 C 192.738 245.583,192.141 243.483,191.926 242.750 C 191.710 242.017,190.797 238.814,189.897 235.634 C 188.997 232.453,188.239 229.872,188.214 229.898 C 188.188 229.923,187.981 231.250,187.755 232.847 C 187.528 234.444,187.077 237.550,186.752 239.750 C 186.427 241.950,185.977 245.025,185.752 246.583 C 185.526 248.142,185.080 251.179,184.760 253.333 C 184.439 255.487,184.060 258.075,183.918 259.083 C 183.775 260.092,183.475 262.117,183.251 263.583 C 183.027 265.050,182.762 266.887,182.663 267.667 C 182.564 268.446,182.344 269.946,182.173 271.000 C 182.003 272.054,181.817 273.329,181.759 273.833 C 181.702 274.337,181.473 275.912,181.252 277.333 C 181.030 278.754,180.730 280.742,180.586 281.750 C 179.853 286.867,179.620 288.468,179.251 290.917 C 178.869 293.455,178.496 296.016,177.915 300.083 C 177.771 301.092,177.471 303.117,177.249 304.583 C 177.026 306.050,176.769 307.813,176.677 308.500 C 175.269 318.989,173.690 322.179,168.930 324.147 C 166.653 325.089,158.105 325.374,155.667 324.590 C 150.342 322.879,148.248 318.274,149.412 310.833 C 149.562 309.871,149.905 307.583,150.173 305.750 C 150.441 303.917,150.920 300.654,151.238 298.500 C 151.556 296.346,151.936 293.758,152.082 292.750 C 152.228 291.742,152.534 289.679,152.762 288.167 C 152.990 286.654,153.209 285.154,153.249 284.833 C 153.289 284.512,153.508 283.012,153.736 281.500 C 153.964 279.987,154.271 277.925,154.417 276.917 C 154.897 273.620,155.649 268.491,156.238 264.500 C 156.556 262.346,156.936 259.758,157.082 258.750 C 157.228 257.742,157.534 255.679,157.762 254.167 C 157.990 252.654,158.209 251.154,158.249 250.833 C 158.289 250.512,158.508 249.012,158.736 247.500 C 158.964 245.987,159.271 243.925,159.417 242.917 C 159.897 239.620,160.649 234.491,161.238 230.500 C 161.556 228.346,161.936 225.758,162.082 224.750 C 162.228 223.742,162.534 221.679,162.762 220.167 C 162.990 218.654,163.209 217.154,163.249 216.833 C 163.289 216.512,163.508 215.012,163.736 213.500 C 163.964 211.987,164.270 209.925,164.416 208.917 C 165.757 199.656,165.937 198.804,167.028 196.591 C 168.471 193.666,170.627 191.860,173.741 190.968 C 175.631 190.427,191.426 190.365,193.417 190.892 C 196.151 191.614,198.462 193.226,200.033 195.506 C 200.300 195.893,200.316 194.835,200.325 176.833 L 200.333 157.750 171.125 157.750 L 141.917 157.750 141.833 188.000 L 141.750 218.250 141.269 219.165 C 137.700 225.948,123.228 225.809,120.065 218.961 L 119.583 217.917 119.536 205.868 L 119.490 193.819 118.786 194.865 C 114.682 200.972,101.279 200.430,98.128 194.030 L 97.583 192.924 97.538 175.383 L 97.493 157.843 95.205 157.796 L 92.917 157.750 92.917 149.250 L 92.917 140.750 95.205 140.704 L 97.492 140.657 97.538 123.450 L 97.583 106.243 98.131 105.131 C 101.018 99.266,112.804 98.131,117.900 103.228 C 118.465 103.792,119.037 104.515,119.172 104.835 C 119.391 105.356,119.425 104.156,119.500 93.250 L 119.583 81.083 120.121 79.947 C 122.035 75.907,128.564 73.738,134.500 75.171 M249.083 149.250 L 249.083 157.750 246.917 157.750 L 244.750 157.750 244.707 149.417 C 244.683 144.833,244.700 140.987,244.745 140.870 C 244.807 140.709,245.345 140.668,246.955 140.703 L 249.083 140.750 249.083 149.250 M97.577 149.250 C 97.577 153.925,97.599 155.861,97.625 153.553 C 97.651 151.245,97.651 147.420,97.625 145.053 C 97.599 142.686,97.577 144.575,97.577 149.250 M201.667 220.552 C 201.667 220.581,201.910 220.825,202.208 221.094 L 202.750 221.583 202.260 221.042 C 201.804 220.537,201.667 220.423,201.667 220.552 " stroke="none" fill="#3c84b4" fill-rule="evenodd"></path><path id="path1" d="M93.000 149.250 L 93.000 157.667 95.250 157.667 L 97.500 157.667 97.500 149.250 L 97.500 140.833 95.250 140.833 L 93.000 140.833 93.000 149.250 M141.833 149.250 L 141.833 157.667 171.000 157.667 L 200.167 157.667 200.167 149.250 L 200.167 140.833 171.000 140.833 L 141.833 140.833 141.833 149.250 M244.667 149.250 L 244.667 157.667 246.833 157.667 L 249.000 157.667 249.000 149.250 L 249.000 140.833 246.833 140.833 L 244.667 140.833 244.667 149.250 M174.037 191.003 C 168.623 192.421,166.449 195.733,165.176 204.500 C 164.352 210.166,163.644 214.982,162.161 225.000 C 161.897 226.787,161.456 229.787,161.182 231.667 C 160.908 233.546,160.452 236.658,160.169 238.583 C 159.886 240.508,159.429 243.621,159.154 245.500 C 158.878 247.379,158.436 250.379,158.172 252.167 C 157.279 258.190,157.149 259.072,156.571 263.000 C 156.254 265.154,155.811 268.192,155.586 269.750 C 155.361 271.308,154.947 274.121,154.667 276.000 C 154.387 277.879,154.009 280.467,153.827 281.750 C 153.646 283.033,153.315 285.283,153.093 286.750 C 152.593 290.039,152.284 292.129,151.659 296.417 C 151.392 298.250,150.908 301.550,150.583 303.750 C 148.827 315.634,148.801 317.130,150.298 320.096 C 152.155 323.775,154.847 324.917,161.667 324.917 C 171.608 324.917,174.671 322.028,176.158 311.250 C 176.347 309.875,176.684 307.550,176.907 306.083 C 177.129 304.617,177.545 301.804,177.830 299.833 C 178.910 292.379,179.356 289.333,179.760 286.667 C 179.989 285.154,180.209 283.654,180.250 283.333 C 180.341 282.610,180.891 278.850,182.832 265.667 C 183.095 263.879,183.546 260.804,183.832 258.833 C 184.119 256.862,184.536 254.050,184.759 252.583 C 184.982 251.117,185.313 248.867,185.494 247.583 C 185.676 246.300,186.090 243.450,186.414 241.250 C 186.737 239.050,187.233 235.646,187.515 233.685 C 188.129 229.422,188.214 229.116,188.492 230.167 C 188.602 230.579,189.478 233.692,190.440 237.083 C 191.402 240.475,192.525 244.450,192.936 245.917 C 193.642 248.439,193.998 249.686,195.160 253.708 C 195.431 254.648,196.374 257.967,197.254 261.083 C 198.135 264.200,199.491 269.000,200.268 271.750 C 201.045 274.500,201.899 277.500,202.166 278.417 C 202.433 279.333,203.340 282.521,204.181 285.500 C 206.660 294.284,208.649 301.299,209.168 303.083 C 209.434 304.000,210.370 307.280,211.249 310.372 C 213.395 317.930,214.037 319.368,216.259 321.602 C 219.053 324.412,220.881 324.919,228.167 324.910 C 234.820 324.902,236.330 324.551,239.068 322.379 C 241.562 320.400,242.725 318.017,244.823 310.583 C 245.108 309.575,246.017 306.350,246.845 303.417 C 247.672 300.483,248.567 297.333,248.834 296.417 C 249.102 295.500,250.041 292.200,250.921 289.083 C 251.802 285.967,253.158 281.167,253.935 278.417 C 254.711 275.667,255.569 272.648,255.840 271.708 C 257.036 267.564,257.361 266.428,258.064 263.917 C 259.301 259.504,262.314 248.865,262.832 247.083 C 263.553 244.605,266.189 235.293,267.008 232.333 C 267.401 230.912,267.776 229.688,267.840 229.613 C 267.905 229.537,268.123 230.587,268.326 231.946 C 268.855 235.497,269.575 240.381,270.164 244.417 C 271.190 251.440,271.660 254.653,272.151 258.000 C 272.882 262.980,273.584 267.770,274.165 271.750 C 274.747 275.729,275.434 280.420,276.175 285.458 C 276.455 287.360,276.909 290.454,277.184 292.333 C 277.459 294.212,277.909 297.287,278.184 299.167 C 278.459 301.046,278.906 304.121,279.179 306.000 C 280.884 317.774,281.448 319.557,284.300 322.194 C 286.684 324.398,288.612 324.917,294.417 324.917 C 305.186 324.917,308.098 321.138,306.360 309.417 C 304.994 300.203,304.632 297.750,304.332 295.667 C 304.153 294.429,303.741 291.617,303.415 289.417 C 303.090 287.217,302.603 283.917,302.333 282.083 C 302.063 280.250,301.577 276.950,301.252 274.750 C 300.927 272.550,300.515 269.737,300.336 268.500 C 300.157 267.262,299.744 264.450,299.419 262.250 C 299.093 260.050,298.604 256.731,298.332 254.875 C 297.776 251.079,297.123 246.650,296.252 240.750 C 295.927 238.550,295.515 235.737,295.336 234.500 C 295.157 233.262,294.744 230.450,294.419 228.250 C 294.093 226.050,293.604 222.731,293.332 220.875 C 293.060 219.018,292.608 215.943,292.327 214.041 C 292.046 212.139,291.599 209.083,291.333 207.250 C 290.209 199.501,289.850 198.024,288.550 195.794 C 287.152 193.395,284.507 191.504,281.729 190.915 C 280.286 190.610,265.004 190.554,263.411 190.848 C 258.095 191.831,255.331 195.182,253.113 203.333 C 252.602 205.213,251.872 207.875,251.491 209.250 C 251.111 210.625,250.666 212.237,250.504 212.833 C 250.023 214.594,247.240 224.708,246.491 227.417 C 246.111 228.792,245.666 230.404,245.504 231.000 C 245.023 232.760,242.240 242.875,241.491 245.583 C 241.111 246.958,240.666 248.571,240.504 249.167 C 240.341 249.762,239.741 251.938,239.170 254.000 C 238.599 256.063,237.919 258.537,237.659 259.500 C 237.400 260.462,236.912 262.225,236.576 263.417 C 236.240 264.608,235.794 266.221,235.585 267.000 C 235.377 267.779,234.513 270.929,233.666 274.000 C 232.819 277.071,231.992 280.071,231.830 280.667 C 231.667 281.262,231.223 282.875,230.843 284.250 C 230.462 285.625,229.700 288.398,229.149 290.413 C 228.598 292.427,228.118 294.104,228.083 294.139 C 228.019 294.203,227.757 293.357,227.189 291.250 C 227.016 290.608,226.180 287.571,225.332 284.500 C 224.483 281.429,223.619 278.279,223.410 277.500 C 223.202 276.721,222.758 275.108,222.423 273.917 C 222.089 272.725,221.560 270.813,221.249 269.667 C 220.937 268.521,220.300 266.196,219.833 264.500 C 219.367 262.804,218.718 260.442,218.391 259.250 C 218.064 258.058,217.589 256.333,217.335 255.417 C 217.081 254.500,216.192 251.275,215.361 248.250 C 214.529 245.225,213.538 241.625,213.157 240.250 C 212.777 238.875,212.333 237.262,212.170 236.667 C 209.748 227.797,208.793 224.399,208.698 224.313 C 208.635 224.256,208.025 224.076,207.343 223.912 C 204.520 223.236,201.903 221.357,200.824 219.232 L 200.250 218.101 200.167 206.918 L 200.083 195.735 199.400 194.878 C 197.866 192.951,195.787 191.637,193.265 191.000 C 191.298 190.503,175.937 190.505,174.037 191.003 " stroke="none" fill="#fbfbfb" fill-rule="evenodd"></path><path id="path2" d="M128.667 74.820 C 124.599 75.407,121.348 77.357,120.121 79.947 L 119.583 81.083 119.500 93.250 C 119.425 104.156,119.391 105.356,119.172 104.835 C 119.037 104.515,118.465 103.792,117.900 103.228 C 112.804 98.131,101.018 99.266,98.131 105.131 L 97.583 106.243 97.583 149.583 L 97.583 192.924 98.128 194.030 C 101.279 200.430,114.682 200.972,118.786 194.865 L 119.490 193.819 119.536 205.868 L 119.583 217.917 120.065 218.961 C 123.228 225.809,137.700 225.948,141.269 219.165 L 141.750 218.250 141.750 149.500 L 141.750 80.750 141.346 79.917 C 139.668 76.461,133.757 74.085,128.667 74.820 M208.724 75.069 C 205.043 75.771,201.975 77.719,200.823 80.083 L 200.417 80.917 200.374 149.163 C 200.327 224.434,200.244 218.334,201.338 219.923 C 205.624 226.153,218.842 225.689,222.039 219.197 L 222.583 218.091 222.630 206.021 L 222.677 193.951 223.167 194.724 C 227.236 201.140,240.862 200.723,244.096 194.083 L 244.583 193.083 244.583 149.746 L 244.583 106.410 244.040 105.305 C 240.775 98.673,226.757 98.355,223.101 104.831 L 222.679 105.578 222.631 93.331 L 222.583 81.083 222.131 80.162 C 220.262 76.356,214.146 74.033,208.724 75.069 " stroke="none" fill="#1b1b1b" fill-rule="evenodd"></path><path id="path3" d="M200.244 149.250 C 200.244 153.925,200.265 155.861,200.292 153.553 C 200.318 151.245,200.318 147.420,200.292 145.053 C 200.265 142.686,200.244 144.575,200.244 149.250 M92.911 149.333 C 92.911 153.962,92.932 155.856,92.958 153.542 C 92.984 151.227,92.984 147.440,92.958 145.125 C 92.932 142.810,92.911 144.704,92.911 149.333 M249.077 149.333 C 249.077 153.962,249.099 155.856,249.125 153.542 C 249.151 151.227,249.151 147.440,249.125 145.125 C 249.099 142.810,249.077 144.704,249.077 149.333 M179.958 190.625 C 181.998 190.651,185.335 190.651,187.375 190.625 C 189.415 190.598,187.746 190.577,183.667 190.577 C 179.588 190.577,177.919 190.598,179.958 190.625 M268.720 190.625 C 270.811 190.651,274.186 190.651,276.220 190.625 C 278.253 190.598,276.542 190.577,272.417 190.577 C 268.292 190.577,266.628 190.598,268.720 190.625 M200.245 206.667 C 200.245 212.579,200.266 214.998,200.292 212.042 C 200.317 209.085,200.317 204.248,200.292 201.292 C 200.266 198.335,200.245 200.754,200.245 206.667 M283.833 321.917 C 284.144 322.237,284.436 322.500,284.482 322.500 C 284.528 322.500,284.311 322.237,284.000 321.917 C 283.689 321.596,283.397 321.333,283.351 321.333 C 283.305 321.333,283.522 321.596,283.833 321.917 " stroke="none" fill="#9cc4dc" fill-rule="evenodd"></path><path id="path4" d="M92.942 140.792 C 92.899 140.860,93.588 140.897,94.474 140.873 C 97.326 140.794,97.640 140.727,95.302 140.697 C 94.046 140.680,92.985 140.723,92.942 140.792 M156.555 140.792 C 164.606 140.816,177.731 140.816,185.722 140.792 C 193.712 140.768,187.125 140.748,171.083 140.748 C 155.042 140.748,148.504 140.768,156.555 140.792 M245.500 140.777 C 247.319 140.899,249.130 140.906,249.058 140.792 C 249.015 140.723,248.029 140.680,246.865 140.697 C 245.702 140.713,245.088 140.749,245.500 140.777 M94.034 157.790 C 94.649 157.822,95.699 157.822,96.368 157.791 C 97.036 157.759,96.533 157.733,95.250 157.732 C 93.967 157.732,93.420 157.758,94.034 157.790 M156.555 157.792 C 164.606 157.816,177.731 157.816,185.722 157.792 C 193.712 157.768,187.125 157.748,171.083 157.748 C 155.042 157.748,148.504 157.768,156.555 157.792 M245.882 157.790 C 246.504 157.823,247.479 157.822,248.049 157.790 C 248.618 157.757,248.108 157.731,246.917 157.731 C 245.725 157.732,245.259 157.758,245.882 157.790 M257.409 193.875 L 256.750 194.583 257.458 193.925 C 258.117 193.312,258.243 193.167,258.117 193.167 C 258.090 193.167,257.771 193.485,257.409 193.875 M216.083 321.667 C 216.535 322.125,216.942 322.500,216.987 322.500 C 217.033 322.500,216.701 322.125,216.250 321.667 C 215.799 321.208,215.392 320.833,215.346 320.833 C 215.300 320.833,215.632 321.208,216.083 321.667 M172.075 322.042 L 171.417 322.750 172.125 322.091 C 172.784 321.478,172.910 321.333,172.784 321.333 C 172.757 321.333,172.438 321.652,172.075 322.042 M304.240 322.375 L 303.750 322.917 304.292 322.427 C 304.797 321.971,304.910 321.833,304.781 321.833 C 304.752 321.833,304.509 322.077,304.240 322.375 " stroke="none" fill="#84b2d0" fill-rule="evenodd"></path></g></svg>