<svg xmlns="http://www.w3.org/2000/svg" viewBox="0 0 500 500"><defs><style>.cls-1{fill:#3e91b5;}.cls-2{fill:#287099;}.cls-3{fill:#fcf5ed;}.cls-4{fill:#efe9e4;}.cls-5{fill:#383838;}.cls-6{fill:#4c4c4c;}.cls-7{fill:#b1b1b1;}.cls-8{fill:#303030;}.cls-9{fill:#98d0e5;}.cls-10{fill:#f1946c;}.cls-11{fill:#7ab2c4;}.cls-12{fill:#1f2121;}.cls-13{fill:#785449;}.cls-14{fill:#948883;}.cls-15{fill:#cf6746;}.cls-16{fill:#a7b0b3;}</style></defs><g id="Layer_4" data-name="Layer 4"><path class="cls-1" d="M249.93,402.48l.06-.42c-5-.21-10-.38-15-.64-54.48-2.79-109-5.65-163.45-8.28-4.57-.22-6-1.27-6-6.07.17-84.23.12-189.46.1-273.68,0-2.23-.29-4.46-.44-6.68-11.74-.43-23.49-.69-35.22-1.37-4.19-.24-5.56.71-5.56,5.21.14,96.22.13,222.44,0,318.66,0,3.65.71,5,4.73,5.17h220.7l.06-32.32"/><path class="cls-1" d="M250,402.06l0,.16Z"/><path class="cls-2" d="M249.93,434.3V402.48l83.78-4.43c32.23-1.7,64.47-3.48,96.71-4.95,5.08-.23,3.8-3.32,3.8-6,0-84.23,0-189.45,0-273.68,0-2.23.29-4.46.44-6.68,11.91-.46,23.82-.8,35.72-1.43,3.6-.19,5.1.38,5.1,4.58-.13,96.51-.13,222,0,318.51,0,4-1.25,4.81-4.94,5Z"/><path class="cls-3" d="M249.38,126.77c0-2.38.21-4.8-1.09-7-2.36-11.84-13.45-20.53-25.87-21.07L54.67,98.54c-1.88-.23-3.83.06-5.74-.09-3.32-.27-4.28,1.22-4.25,4.23.09,9,0,18-.08,27.06.17,2.37.48,4.75.48,7.12,0,89.85,0,188.22.06,278.07,0,2.81-1.42,6.1,4.21,6.35H249.43Z"/><path class="cls-3" d="M249.43,422.75l.06-.45"/><path class="cls-4" d="M249.49,422.3c0-95.66,0-199.86,0-295.53,0-2.38-.21-4.8,1.09-7,2.36-11.84,13.46-20.53,25.87-21.07l167.75-.17c1.89-.23,3.84.06,5.74-.09,3.32-.27,4.28,1.22,4.25,4.23-.09,9,0,18,.09,27.06-.17,2.37-.49,4.75-.49,7.12,0,89.85,0,190.36-.06,280.2,0,2.81,1.42,6.11-4.21,6.35l-200.08-.66-.06-.45c0-95.66,0-199.86,0-295.53"/><g id="EJiMXN.tif"><path class="cls-5" d="M294.46,279.05c0,1.67.58,3.79-.22,4.86s-3,.26-4.61.31-3,0-4.53,0c-.8,0-1-.26-1-1q0-14.57,0-29.14c0-.76.2-1.05,1-1,1.4.08,2.8.06,4.2.07a3.22,3.22,0,0,1,.51,2.46c0,5.54.09,11.09,0,16.63-.06,3.09.84,5.38,4,6.34A1.67,1.67,0,0,1,294.46,279.05Z"/><path class="cls-5" d="M419,279.05c0,1.66.6,3.78-.2,4.86s-3,.25-4.61.31c-1.45.06-2.91,0-4.36,0-.92.05-1.18-.25-1.17-1.16,0-3.93,0-7.87,0-11.8a6.46,6.46,0,0,1,0-5.24c0-3.88.07-7.76,0-11.64,0-1.06.26-1.42,1.33-1.33,1.28.1,2.58,0,3.87.07a3.22,3.22,0,0,1,.51,2.46c0,5.54.09,11.09,0,16.63-.06,3.09.84,5.38,4,6.34A1.57,1.57,0,0,1,419,279.05Z"/><path class="cls-6" d="M294.46,279.05c-3.28-.29-5.13-2.25-5.14-5.48,0-6.81,0-13.61,0-20.42,1.67,0,3.78-.59,4.86.21s.29,3,.32,4.6c.07,2.69.05,5.39.06,8.08a6.41,6.41,0,0,1,0,5.25Z"/><path class="cls-6" d="M419,279.05c-3.27-.29-5.12-2.25-5.13-5.48,0-6.81,0-13.61,0-20.42,1.67,0,3.79-.58,4.87.22s.31,3,.31,4.61C419,265,419,272,419,279.05Z"/><path class="cls-7" d="M294.55,271.29V266l114.36,0v5.21Z"/><path class="cls-8" d="M355.84,404.39c-.45-4.49-.91-9-1.34-13.49-.52-5.47-1-10.94-1.52-16.41-.4-4.5-.74-9-1.11-13.52q-.3-.44-.6,0-.79,8.92-1.59,17.85c-.47,5.31-.89,10.63-1.37,15.94-.3,3.21-.67,6.42-1,9.63a7.75,7.75,0,0,1-5.87.08c-.78-1.42-.48-3-.34-4.44s.2-2.9.22-4.36c.07-8.05.53-16.08.71-24.12.14-6.09.44-12.19.61-18.28.1-3.19.35-6.36.31-9.55a2.49,2.49,0,0,1,.46-1.69,2.87,2.87,0,0,1,1.85-.44q9.93,0,19.87,0a2.5,2.5,0,0,1,2,.54c0,4.92.05,9.83.05,14.75q0,23.75,0,47.5a2,2,0,0,1-1.63.54c-2.68,0-5.37,0-8,0A2.06,2.06,0,0,1,355.84,404.39Z"/><path class="cls-9" d="M369.77,311q-.87,10.88-1.74,21.74a14.81,14.81,0,0,1-.3,1.59,2.56,2.56,0,0,1-2,.5c-4.59,0-9.19.07-13.78,0A12.32,12.32,0,0,1,340,323.38c-.52-7.27-1.05-14.53-1.28-21.81,0-1.22-.67-2.44.08-3.63,1.49-.73,3-.43,4.58-.29,1,.32,1.15,1.21,1.43,2a8.46,8.46,0,0,0,1.83,3.38,6.62,6.62,0,0,0,11.21-2.21c.46-1.1.43-2.51,1.74-3.15a11.81,11.81,0,0,1,4.7.06c.56.3.6.86.66,1.39A18.33,18.33,0,0,0,369.45,310,1,1,0,0,1,369.77,311Z"/><path class="cls-10" d="M391.67,301.71c.75-.7,1.58-.49,1.78-1.66.59-3.48,1.44-6.92,2.05-10.4,1.13-6.43,3.24-12.72,2.78-19.38a6.16,6.16,0,0,0,0-5.21,3.48,3.48,0,0,1,0-.64c.26-1.53-.3-2.06-1.9-2-2.78.14-5.58,0-8.37,0s-2.67,0-2.72,2.58c-.91,1.6-.39,3.33-.46,5s-.19,3.18,1.2,4.34a2.44,2.44,0,0,1,.66,3c-1.27,3.67-2.47,7.37-3.71,11.05-.66,2-1.31,3.09-3.25,4.05a86.3,86.3,0,0,1-12.92,5c-.78,0-1.64-.18-2.28.52A18.69,18.69,0,0,0,369.77,311c.48,0,1,0,1.45,0C371.22,311,389.89,303.37,391.67,301.71Z"/><path class="cls-10" d="M311.32,301.71c-.75-.7-1.58-.49-1.78-1.66-.59-3.48-1.44-6.92-2.05-10.4-1.13-6.43-3.24-12.72-2.78-19.38a6.09,6.09,0,0,1,0-5.21,2.76,2.76,0,0,0,0-.64c-.25-1.53.31-2.06,1.91-2,2.78.14,5.58,0,8.37,0s2.67,0,2.72,2.58c.91,1.6.39,3.33.46,5s.18,3.18-1.21,4.34a2.45,2.45,0,0,0-.65,3c1.27,3.67,2.47,7.37,3.71,11.05a5.81,5.81,0,0,0,3.24,4.05,86.75,86.75,0,0,0,12.92,5c.79,0,1.65-.18,2.28.52A18.64,18.64,0,0,1,333.22,311c-.48,0-1,0-1.45,0C331.77,311,313.1,303.37,311.32,301.71Z"/><path class="cls-11" d="M333.39,311a18.13,18.13,0,0,0,5.24-12.95.18.18,0,0,1,.3,0c.43,6.37.92,12.73,1.25,19.1a48.25,48.25,0,0,0,.7,8.32,11.84,11.84,0,0,0,11.17,8.85c5.23,0,10.45,0,15.68,0a61.69,61.69,0,0,1-.65,7.79l-23.62.05a11.57,11.57,0,0,1-7.4-.05c-.42-4.51-.88-9-1.26-13.53C334.3,322.74,333.86,316.87,333.39,311Z"/><path class="cls-12" d="M336.06,342.13l7.4.05c-.11,5.81-.09,11.62-.36,17.42-.29,6.34-.45,12.68-.66,19-.22,6.66-.48,13.32-.67,20,0,1.92-.2,3.86-.26,5.79a6.22,6.22,0,0,1-5.53,0l0-60.31C336,343.42,336,342.78,336.06,342.13Z"/><path class="cls-6" d="M347,259.16c2.57,0,5.15-.09,7.72-.05a5.07,5.07,0,0,1,4.58,4.25c.1.61.16.85.88,1a5,5,0,0,1,4.34,5.29c0,.59,0,1.18,0,1.77.2,2.21-1.11,3.87-2.06,5.66a1.09,1.09,0,0,1-.67.36,10.34,10.34,0,0,1-3.4-1.45,2.21,2.21,0,0,0-2.55.09,8.78,8.78,0,0,1-5.95,1.67c-2-.13-4.09.3-6.11-.28-1.37-1.3-1.69-3.08-2.15-4.77a20.54,20.54,0,0,1-.85-6.7A6.94,6.94,0,0,1,347,259.16Z"/><path class="cls-13" d="M355.84,404.39h11.32c4.59-.14,8.57,3.72,7.76,9.78-.08.64-.45.61-.89.61-5.49,0-11,0-16.48,0-.71,0-1-.34-1-.93C356.46,410.69,355.75,407.57,355.84,404.39Z"/><path class="cls-13" d="M336,404.38H347.3c.08,3.19-.61,6.32-.69,9.49,0,.63-.36.91-1.06.91-5.45,0-10.91,0-16.36,0-.4,0-.87.14-1-.54C327.41,408.52,331,404.32,336,404.38Z"/><path class="cls-5" d="M341.17,277.24a35.69,35.69,0,0,1-2-5.19c-.21-1.59-.49-3.17-.63-4.78a7.32,7.32,0,0,1,8.44-8.11c-4.76,1.66-6.45,4.84-5.63,9.91a29.5,29.5,0,0,0,2.38,8.15,2,2,0,0,1-.19.22A2.1,2.1,0,0,1,341.17,277.24Z"/><path class="cls-14" d="M351.27,361c0-.42-.28-1.09.38-1.08.37,0,.26.68.22,1.08Z"/><path class="cls-10" d="M358.14,295.73a5.2,5.2,0,0,1,1.23,2.27c-.41,1.11-.76,2.25-1.23,3.33a7.1,7.1,0,0,1-13.14,0c-.47-1.08-.82-2.22-1.22-3.33a5,5,0,0,1,1.23-2.27c.66-.29,1.13.18,1.62.46a9.74,9.74,0,0,0,9.88,0C357,295.91,357.47,295.44,358.14,295.73Z"/><path class="cls-10" d="M361.62,287.65a10,10,0,0,1-3.32,5.41c-.35.32-.89.47-.91,1.06-4.34,2.48-8.72,1.58-11.7-2.42a10.93,10.93,0,0,1-2.38-7.07c.07-1.83,0-3.67,0-5.51a2.27,2.27,0,0,1,.48-1.82l0-.08c2.48,0,5,.06,7.42,0a7.57,7.57,0,0,0,4.72-1.81,1.54,1.54,0,0,1,2-.16c1.31.73,2.69,1.34,4,2a1.94,1.94,0,0,1,.51,1.47c0,2.35.05,4.71,0,7.06A2.33,2.33,0,0,1,361.62,287.65Z"/><path class="cls-15" d="M361.62,287.65c.69-3.44.16-6.92.33-10.37l.29-.3c1.16.6,2.42.13,3.62.29,2.23,1.05,3.86,2.54,3.86,5.22a5.17,5.17,0,0,1-4.86,5.13C363.79,287.69,362.7,287.64,361.62,287.65Z"/><path class="cls-15" d="M343.81,277.3c.12,3.39-.52,6.83.32,10.16a9.92,9.92,0,0,0,8.21,7.72c1.24.26,2.3-.32,3.41-.71.53-.18,1-.74,1.64-.35l.75,1.61q-6.57,4.54-13.13,0c.88-1.33.73-2.32-.67-3.3a6.08,6.08,0,0,1-2.25-3.3c-.37-1.32-1.15-1.62-2.38-1.51a5.64,5.64,0,0,1-4.41-1.19c-3.13-2.67-2.29-7.19,1.65-8.88,1.37-.54,2.82-.17,4.22-.31Z"/></g><g id="EJiMXN.tif-2" data-name="EJiMXN.tif"><path class="cls-9" d="M170.81,324.91q-.85,10.88-1.73,21.74a14.81,14.81,0,0,1-.3,1.59,2.57,2.57,0,0,1-2,.5c-4.59,0-9.19.08-13.78,0a12.34,12.34,0,0,1-11.94-11.45c-.52-7.26-1-14.53-1.28-21.81,0-1.22-.66-2.44.09-3.63,1.48-.73,3-.43,4.57-.29,1,.32,1.16,1.21,1.43,2a8.71,8.71,0,0,0,1.83,3.38,6.63,6.63,0,0,0,11.22-2.21c.45-1.1.42-2.51,1.74-3.15a11.81,11.81,0,0,1,4.7.06c.56.3.6.86.65,1.39a18.4,18.4,0,0,0,4.47,10.85A1,1,0,0,1,170.81,324.91Z"/><path class="cls-10" d="M105.91,286c0-2.58,0-2.58,2.72-2.58s5.59.1,8.38,0c1.59-.08,2.15.45,1.9,2a2.76,2.76,0,0,0,0,.64c.9,1.59.38,3.31.46,5,.14,1.83,0,3.55-1.61,4.84a1.75,1.75,0,0,0-.4,2.08c1.35,4,2.72,8.07,4,12.12.4,1.23,1.22,1.47,2.35,1.47,4.53,0,9.06,0,13.58,0a4.33,4.33,0,0,1,2.22.3,6.23,6.23,0,0,1,.21,3.47,15.76,15.76,0,0,1-4.23,9.07,1.72,1.72,0,0,1-1.09.63l-14.07-1.54c-2.39-.25-4.79-.55-7.19-.73-1.37-.1-2.19-.33-2.5-2-1.46-7.8-3.18-15.54-4.64-23.33a36.81,36.81,0,0,1-.13-6.13A6.19,6.19,0,0,1,105.91,286Z"/><path class="cls-10" d="M170.81,324.91a18.68,18.68,0,0,1-5.25-13c.64-.7,1.5-.51,2.28-.51,4.43,0,8.85,0,13.27,0,2.16,0,2.24-.06,2.9-2,1.23-3.69,2.44-7.38,3.71-11.06a2.46,2.46,0,0,0-.66-3c-1.39-1.16-1.23-2.77-1.2-4.34s-.45-3.41.46-5c.05-2.58.05-2.58,2.72-2.58s5.59.1,8.37,0c1.6-.08,2.16.45,1.9,2a3.48,3.48,0,0,0,0,.64,6.19,6.19,0,0,1,0,5.22c.46,6.65-1.66,12.94-2.78,19.37-.61,3.48-1.46,6.92-2.05,10.4a1.73,1.73,0,0,1-1.78,1.66c-2.88.31-5.75.64-8.63,1q-5.91.66-11.82,1.3C171.79,324.92,171.3,324.9,170.81,324.91Z"/><path class="cls-11" d="M134.44,324.91a18.13,18.13,0,0,0,5.24-13,.18.18,0,0,1,.3,0c.42,6.37.91,12.73,1.25,19.1a48.25,48.25,0,0,0,.7,8.32,11.84,11.84,0,0,0,11.17,8.85h15.68a61.53,61.53,0,0,1-.65,7.79l-23.62.05a11.57,11.57,0,0,1-7.4-.05c-.43-4.51-.88-9-1.26-13.53C135.35,336.64,134.9,330.77,134.44,324.91Z"/><path class="cls-6" d="M148.06,273.06c2.58,0,5.16-.09,7.73,0a5,5,0,0,1,4.57,4.24c.11.61.17.85.89,1a5,5,0,0,1,4.34,5.29c0,.59,0,1.18,0,1.77.19,2.21-1.12,3.87-2.06,5.66a1.18,1.18,0,0,1-.67.37,10.78,10.78,0,0,1-3.4-1.45,2.18,2.18,0,0,0-2.55.09,8.84,8.84,0,0,1-6,1.66c-2-.13-4.1.3-6.11-.28-1.38-1.29-1.69-3.08-2.16-4.77a20.8,20.8,0,0,1-.84-6.7A6.93,6.93,0,0,1,148.06,273.06Z"/><path class="cls-5" d="M95.5,299c0,1.67.59,3.79-.21,4.86s-3,.26-4.61.31-3,0-4.53,0c-.8,0-1-.26-1-1q0-14.56,0-29.14c0-.76.2-1,1-1,1.4.07,2.8.05,4.2.06a3.22,3.22,0,0,1,.51,2.46c0,5.54.09,11.09,0,16.63-.06,3.09.84,5.38,4,6.34A1.57,1.57,0,0,1,95.5,299Z"/><path class="cls-5" d="M220,299c0,1.66.59,3.78-.2,4.86s-3,.25-4.61.31-2.91,0-4.36,0c-.92.05-1.18-.25-1.17-1.16,0-3.93,0-7.87,0-11.8a6.54,6.54,0,0,1,0-5.24c0-3.88.07-7.76,0-11.64,0-1.06.26-1.42,1.33-1.33,1.28.1,2.58.06,3.87.07a3.22,3.22,0,0,1,.51,2.46c0,5.54.08,11.09,0,16.63-.06,3.09.84,5.38,4,6.34A1.64,1.64,0,0,1,220,299Z"/><path class="cls-13" d="M182.74,399.9h11.33c4.59-.14,8.56,3.72,7.76,9.78-.09.64-.46.61-.89.61-5.5,0-11,0-16.48,0-.71,0-1-.34-1-.94C183.36,406.2,182.65,403.08,182.74,399.9Z"/><path class="cls-13" d="M113.2,399.89h11.32c.08,3.19-.62,6.32-.69,9.49,0,.62-.37.91-1.06.91-5.45,0-10.91,0-16.37,0-.39,0-.86.14-1-.54C104.63,404,108.25,399.83,113.2,399.89Z"/><path class="cls-6" d="M95.5,299c-3.27-.29-5.12-2.25-5.13-5.48q0-10.22,0-20.42c1.66,0,3.78-.59,4.86.21s.28,3,.32,4.6c.07,2.7,0,5.39.06,8.08a6.49,6.49,0,0,1,0,5.25Q95.56,295.07,95.5,299Z"/><path class="cls-6" d="M220,299c-3.27-.29-5.12-2.25-5.13-5.48q0-10.22,0-20.42c1.67,0,3.79-.58,4.87.22s.31,3,.31,4.62C220.06,284.91,220,291.93,220,299Z"/><path class="cls-7" d="M118.92,291.18V286h21.34a8,8,0,0,1,1.83,5.42,17,17,0,0,1-4.27.37c-5.43-.1-10.85,0-16.28,0A3.66,3.66,0,0,1,118.92,291.18Z"/><path class="cls-7" d="M163.29,290.88c.73-1.87,1.83-3.59,2.26-5.59.17,1,1,.67,1.54.67,6.41,0,12.82,0,19.23,0v5.22a3.38,3.38,0,0,1-2.47.52c-5.61,0-11.22.06-16.83-.05a10.35,10.35,0,0,1-2.36,0C164.12,291.59,163.45,291.66,163.29,290.88Z"/><path class="cls-7" d="M95.6,291.19v-5.25l10.31,0v5.22Z"/><path class="cls-7" d="M209.63,286v5.24h-10.3V286Z"/><path class="cls-5" d="M142.22,291.14a35.69,35.69,0,0,1-2-5.19c-.21-1.59-.49-3.17-.63-4.78a7.31,7.31,0,0,1,8.43-8.11c-4.76,1.66-6.44,4.85-5.62,9.91a29.4,29.4,0,0,0,2.38,8.15c-.06.08-.13.15-.19.22A2.1,2.1,0,0,1,142.22,291.14Z"/><path class="cls-10" d="M159.18,309.63a5,5,0,0,1,1.23,2.27c-.4,1.11-.75,2.25-1.23,3.33a7.09,7.09,0,0,1-13.13,0c-.48-1.08-.82-2.22-1.23-3.33a5.2,5.2,0,0,1,1.23-2.27c.67-.29,1.14.19,1.63.46a9.76,9.76,0,0,0,9.88,0C158.05,309.82,158.52,309.34,159.18,309.63Z"/><path class="cls-10" d="M162.67,301.55a9.9,9.9,0,0,1-3.33,5.41c-.34.32-.88.47-.91,1.07-4.33,2.47-8.71,1.57-11.69-2.43a10.93,10.93,0,0,1-2.38-7.07c.07-1.83,0-3.67,0-5.51a2.27,2.27,0,0,1,.48-1.82l0-.08c2.47,0,5,.06,7.42,0a7.52,7.52,0,0,0,4.71-1.81,1.55,1.55,0,0,1,2-.16c1.31.73,2.69,1.34,4,2a1.9,1.9,0,0,1,.5,1.47c0,2.36.06,4.71,0,7.06A2.32,2.32,0,0,1,162.67,301.55Z"/><path class="cls-15" d="M162.67,301.55c.69-3.44.15-6.92.33-10.37l.29-.3c1.16.6,2.42.13,3.62.3,2.23,1,3.86,2.53,3.85,5.21a5.15,5.15,0,0,1-4.85,5.13C164.84,301.59,163.75,301.55,162.67,301.55Z"/><path class="cls-15" d="M144.86,291.2c.12,3.39-.52,6.83.32,10.16a9.91,9.91,0,0,0,8.21,7.72c1.23.26,2.3-.32,3.4-.71.54-.18,1-.74,1.64-.34l.75,1.6q-6.56,4.55-13.13,0c.89-1.33.74-2.32-.66-3.3a6,6,0,0,1-2.25-3.3c-.37-1.32-1.15-1.62-2.38-1.51a5.64,5.64,0,0,1-4.41-1.19c-3.13-2.67-2.3-7.19,1.65-8.88,1.37-.54,2.81-.17,4.22-.31Z"/><polygon class="cls-8" points="179.69 380.4 182.44 399.89 194.57 399.89 192.95 375.52 168.13 356.03 153.68 356.03 153.68 371.73 179.69 380.4"/><polygon class="cls-8" points="126.06 380.4 124.93 399.89 112.79 399.89 112.79 375.52 139.24 356.03 153.68 356.03 153.68 371.73 126.06 380.4"/></g><path class="cls-16" d="M230,197.45v8.26H64.13v-8.26Z"/><path class="cls-16" d="M229.88,154.6H64.1v-8.26H229.88Z"/><path class="cls-16" d="M229.91,248.5v8.25H64.14V248.5Z"/><path class="cls-16" d="M64,180.13v-8.21H174.34v8.21Z"/><path class="cls-16" d="M126.42,231.13V223H230v8.14Z"/><path class="cls-16" d="M119,129H64.16v-8.26H119Z"/><path class="cls-16" d="M112.08,223v8.23H64.14V223Z"/><path class="cls-16" d="M188.74,180.1v-8.2H230v8.2Z"/><path class="cls-16" d="M433.52,180.13v8.25H267.7v-8.25Z"/><path class="cls-16" d="M433.45,137.28H267.68V129H433.45Z"/><path class="cls-16" d="M433.48,231.18v8.25H267.72v-8.25Z"/><path class="cls-16" d="M267.57,162.81V154.6H377.91v8.21Z"/><path class="cls-16" d="M330,213.8v-8.13H433.53v8.13Z"/><path class="cls-16" d="M315.66,205.65v8.23H267.72v-8.23Z"/><path class="cls-16" d="M392.32,162.78v-8.2h41.22v8.2Z"/></g></svg>