<svg xmlns="http://www.w3.org/2000/svg" viewBox="0 0 455 512">
    <g fill="#4b9ee3">
        <path d="M96 0C43 0 0 12 0 96V416c0 53 3 96 96 96H384h32c17.7 0 32-14.3 32-32s-14.3-32-32-32V384c17.7 0 32-14.3 32-32V32c0-17.7-14.3-32-32-32H384 96zm0 384H352v64H96c-17.7 0-32-14.3-32-32s14.3-32 32-32zm32-240c0-8.8 7.2-16 16-16H336c8.8 0 16 7.2 18 16s-7.2 16-16 16H144c-8.8 0-16-7.2-16-16zm16 48H336c8.8 0 16 7.2 16 16s-7.2 16-16 16H144c-8.8 0-16-7.2-16-16s7.2-16 16-16z" />
    </g>
    <g transform="translate(100 0) scale(.75)" fill="#4b9ee3">
        <path d="M0 48V487.7C0 501.1 10.9 512 24.3 512c5 0 9.9-1.5 14-4.4L192 400 345.7 507.6c4.1 2.9 9 4.4 14 4.4c13.4 0 24.3-10.9 24.3-24.3V48c0-26.5-21.5-48-48-48H48C21.5 0 0 21.5 0 48z" />
    </g>
    <g transform="translate(85 75) scale(.45)" fill="#f3f6f4">
        <path d="M96 64c0-17.7 14.3-32 32-32h32c17.7 0 32 14.3 32 32V224v64V448c0 17.7-14.3 32-32 32H128c-17.7 0-32-14.3-32-32V384H64c-17.7 0-32-14.3-32-32V288c-17.7 0-32-14.3-32-32s14.3-32 32-32V160c0-17.7 14.3-32 32-32H96V64zm448 0v64h32c17.7 0 32 14.3 32 32v64c17.7 0 32 14.3 32 32s-14.3 32-32 32v64c0 17.7-14.3 32-32 32H544v64c0 17.7-14.3 32-32 32H480c-17.7 0-32-14.3-32-32V288 224 64c0-17.7 14.3-32 32-32h32c17.7 0 32 14.3 32 32zM416 224v64H224V224H416z" stroke="#f3f6f4" stroke-width="12" />
    </g>

    <g transform="translate(0 410) scale(1)">
        <path d="M10 20h400v2h-400z" stroke="#4b9ee3" stroke-width="5" />
    </g>
    <g transform="translate(0 386) scale(1)">
        <path d="M10 20h400v2h-400z" stroke="#4b9ee3" stroke-width="7" />
    </g>
</svg>
