<svg id="Layer_1" data-name="Layer 1" xmlns="http://www.w3.org/2000/svg" viewBox="0 0 500 500"><defs><style>.cls-1{fill:#dfe7e7;}.cls-2{fill:#d0d6d6;}.cls-3{fill:#c6cccc;}.cls-4{fill:#afb2b2;}.cls-5{fill:#554e56;}.cls-6{fill:#685e68;}.cls-7{fill:#e1dde1;}.cls-8{fill:#cac3cb;}.cls-9{fill:#b5acb5;}.cls-10{fill:#faf6f6;}.cls-11{fill:#f1e9e6;}.cls-12{fill:#f5f1f1;}.cls-13{fill:#eee1dc;}.cls-14,.cls-16{fill:#88292f;}.cls-15{fill:#b5696a;}.cls-16{stroke:#b5696a;stroke-miterlimit:10;stroke-width:3px;opacity:0.5;}.cls-17{fill:#fdd400;}.cls-18{fill:#feefaf;}.cls-19{fill:#fee459;}.cls-20{fill:#fac600;}</style></defs><circle class="cls-1" cx="252.68" cy="249.9" r="165.21"/><path class="cls-2" d="M115.38,249.9A165.23,165.23,0,0,1,266.63,85.28c-4.6-.38-9.25-.59-13.95-.59a165.21,165.21,0,1,0,0,330.41q7.05,0,13.95-.59A165.21,165.21,0,0,1,115.38,249.9Z"/><circle class="cls-3" cx="252.68" cy="249.9" r="117.75"/><path class="cls-4" d="M150.26,249.9A117.76,117.76,0,0,1,260.35,132.4c-2.54-.16-5.09-.25-7.67-.25a117.75,117.75,0,0,0,0,235.5c2.58,0,5.13-.1,7.67-.26A117.75,117.75,0,0,1,150.26,249.9Z"/><path class="cls-5" d="M482.61,374.83c1.07,10.41,2.57,20.79,3.24,31.22.79,12.2-11,19.52-22.05,14,0-1.72,1.4-2.52,2.37-3.58a13.66,13.66,0,0,0,3.62-11.23c-3.82-32.92-7.08-65.9-10.68-98.85-2.45-22.41-4.93-44.82-7.12-67.26-.14-1.46-.51-2.94.38-4.31a22,22,0,0,1,15.18-1.61,72.14,72.14,0,0,1,2,8.82l3.91,45.49c.79,8.15,1.53,16.3,2.38,24.45.62,5.95,1.39,11.89,2.1,17.84Z"/><path class="cls-6" d="M451.67,365.45Q454,387,456.36,408.63c.55,5.05,2.59,9.15,7.44,11.43,4.75-3.31,7.72-7.65,7.3-13.64-.35-5-1-10-1.56-15-1.18-10.59-2.43-21.16-3.57-31.76-.85-7.91-1.5-15.86-2.37-23.77-1.12-10.23-2.45-20.43-3.55-30.65-1.12-10.48-2-21-3.1-31.46-1.37-12.91-2.87-25.8-4.32-38.7a2.14,2.14,0,0,0-1-.83c-4.85,0-9.75-.4-14.15,2.28-.68,1.3-.35,2.66-.22,4,1.74,17.41,3.78,34.78,5.53,52.19.79,6.24,1.3,12.52,2.11,18.76Z"/><path class="cls-7" d="M437.89,236.56c-.8-7.56-1.49-15.13-2.43-22.68-.65-5.26-4.73-8.3-8.48-11.21-4.74-3.68-7.27-8-7.05-14.14.63-18.19,1.88-36.34,2.44-54.54.32-10.55,1.25-21.1,1.38-31.67l.66-9.42c.33-4.86,1.63-9.18,5.93-12.06,5.46,1.84,7.31,6.42,8.09,11.42,1.27,8,1.83,16.19,2.72,24.28q3.64,33.12,7.12,66.27c1.67,15.95,3.56,31.89,5,47.87.14,1.59.49,3.27-1.43,4.16Z"/><path class="cls-8" d="M452.63,235.09a82.16,82.16,0,0,1,14.76-1.56c-.54-5.73-1-11.46-1.62-17.18-.88-8.39-1.88-16.77-2.78-25.16-.83-7.66-1.57-15.34-2.39-23q-1.38-13-2.82-25.9c-.94-8.38-1.92-16.76-2.88-25.14-1-8.86-2.2-17.69-2.92-26.57-.86-10.71-13.76-16.18-21.64-9.74C435.84,85.23,437.88,91,438,98a72.68,72.68,0,0,0,.75,7.66q1.45,12.22,2.74,24.47c.85,8,1.55,16.11,2.4,24.16.89,8.4,1.9,16.79,2.8,25.19.83,7.68,1.55,15.37,2.4,23.05,1.12,10.1,2.35,20.19,3.46,30.29l.26,3.78"/><path class="cls-5" d="M51.48,354.37c-1.83,14.1-3.49,28.22-5.55,42.29-1.73,11.84-14.22,16.61-24.22,9.47-.86-1.87.78-2.41,1.81-3,4.11-2.52,6.09-6.23,6.71-10.91q10.08-75.87,20.12-151.75c.59-4.52,1.15-9.05,1.86-13.55.24-1.55-.6-4.16,1-5.1,5-.73,10.68.71,15.31,2.75,1.06,1.41.84,3,.64,4.61Q65,261.68,60.63,294.2Z"/><path class="cls-6" d="M21.37,355.85c-1.57,12.08-3.22,24.15-4.82,36.22-.74,5.58.28,10.54,5.16,14.06.13-1.4,1.36-1.66,2.33-2.09,3.56-1.59,5.52-4.55,6.55-8.05A53.68,53.68,0,0,0,32,387.68c1.56-12,3-24.09,4.61-36.11s3.42-24,5-36,3-24.33,4.6-36.48c1.89-14.46,3.76-28.93,5.9-43.35,0,0,1.4-13.19,1.89-14.21,0-.79-.17.57-.8.29-4.68-.6-9.26-2.33-14.07-1-1.49,1.23-1.51,3-1.74,4.71l-9.13,77.57C27,313.3,25.47,323.52,24,333.74Z"/><path class="cls-7" d="M39.46,221c.88-7.41,1.61-14.84,2.69-22.22.9-6.21.11-11-5.52-15.44C29.75,177.92,27,170,28.2,161c1.62-12.12,3.07-24.26,4.63-36.39.31-2.43.76-7.3.76-7.3s1.31-9.58,2.16-14.35c.53-3,.71-6,1.35-9,.59-2.71,2.19-4.07,5.35-3.49,4.16.77,8.4,1.07,12.61,1.58q-3.89,27.87-7.42,55.78a20.34,20.34,0,0,0-.26,4.8c.21,2.18,1.14,3.81,3.51,4.09a4.36,4.36,0,0,0,4.91-3.08,19.79,19.79,0,0,0,1-4.71c2.17-17.14,4.47-34.27,6.79-51.4.2-1.48.27-3,1.76-3.86a50.58,50.58,0,0,1,11.23,1.43c1.19,1.44.63,3.08.44,4.63-2.18,17.61-4.66,35.18-6.89,52.79-.08.61-.19,1.22-.22,1.84-.14,3.08,1.27,5.07,3.81,5.41s4.46-1,5.13-4.18c.85-4,1.17-8.05,1.68-12.08,1.78-14.06,3.85-28.08,5.53-42.16.2-1.69.35-3.46,1.69-4.78l1.46,0c1.3,1.48,1,3.21.77,4.93-2.77,20.17-5.48,40.34-8,60.55-1.45,11.74-6.91,20.37-18,25.09-3.56,1.51-5.13,4.4-5.53,8.11-.83,7.86-2.06,15.66-3,23.49-.18,1.46-.15,3-1.84,3.75Z"/><path class="cls-9" d="M65.3,93.64c-1.19,8.62-2.42,17.23-3.57,25.85-1.53,11.43-2.89,22.88-4.59,34.27-.44,2.93-2.73,4.57-6,4.35s-5.1-2-5-5.17c.16-7.38,1.62-14.63,2.5-21.93,1.29-10.71,2.66-21.42,4.28-32.08.35-2.32-.57-5.24,2.13-6.91a44.35,44.35,0,0,1,9.64,1.54A4.11,4.11,0,0,0,65.3,93.64Z"/><path class="cls-8" d="M53.56,222.51c4.64.54,10.15,1.76,14.8,2.3,1-6.91,2.34-13.79,2.89-20.74s2.15-12.55,9.59-14.87a16.7,16.7,0,0,0,6.1-4.09c6.45-6,7.92-13.86,8.89-22,1.2-10.1,2.51-20.19,3.86-30.27s2.86-20.13,4.2-30.21c.33-2.46-1.16-4-3.45-4.5-3.71-.8-11.28-1.51-11.28-1.51.14,4.33-1,8.51-1.5,12.75-1.09,8.62-2.24,17.23-3.36,25.84s-2.4,17-3.27,25.47c-1.2,11.77-6,20.91-17.55,25.43-3.76,1.47-5.59,4.36-6.13,8.11-.66,4.6-.82,9.28-1.65,13.84Z"/><path class="cls-9" d="M87.7,96.54c-1.32,10.48-2.62,20.95-4,31.42-1.14,8.89-2.33,17.77-3.51,26.65-.39,2.91-1,5.74-4.51,6.39-2.76.52-5.15-.14-6.57-2.89a5.88,5.88,0,0,1-.65-3.57q3.69-27.91,7.37-55.85c.16-1.21.44-2.41.66-3.62A43,43,0,0,1,87.7,96.54Z"/><path class="cls-10" d="M230.11,188.89A12.7,12.7,0,0,1,246.85,179c1.07.38,1.94.52,2.62-.9,3.91-8.2,12-9.06,18.66-5.64a12,12,0,0,0,4-2c6.25-4.59,11.53-4.59,17.79,0a3.85,3.85,0,0,0,4.44.37c6.42-2.86,12.72-1.6,16.9,3.81,1.78,2.31,3.27,2.88,6.13,2.43,8-1.26,15.47,5.6,14.81,13.17l-6.61,8.79s.07.1.1.16c-.57,3-2.66,5.17-4.21,7.6-13.06,20.59-21.34,43.05-25.81,66.91-4.05,21.59-4.64,43.28-.28,65,.22,1.05.84,2.41-.85,3-1.72-.27-2.78.9-4,1.79-5.51,4.06-11.93,4.24-17.09.09-2.23-1.79-3.93-1.76-6.38-.57-5.13,2.49-12.25.75-15.46-3.89-1.68-2.43-3.3-3.05-6.16-2.58-4.93.81-9.32-1.41-11.25-5.06l-2.37-4c-1.74-.59-1.3-2.89-2.84-3.62-4-.1-7.81-.67-10.26-4.4a5.19,5.19,0,0,1-2-3.16c-.37-1.85-.42-3.77-1.51-5.41,1-3.55-2.36-2.69-3.82-3.75h0c-6.56-2-10.09-8.54-8.12-15.45.46-1.62.4-2.27-1.22-3.17-6.63-3.69-8.88-11.15-5.29-17.76,1-1.88.92-2.88-.53-4.35a12.61,12.61,0,0,1,.15-18.49c1.42-1.36,1.19-2.13.42-3.51-3.83-6.89-2.11-13.52,4.67-17.85,1.41-.9,1.91-1.77,1.5-3.44-2-8.1,1.34-14,9.34-16.46,1.59-.49,1.94-1.1,2-2.65.24-8.46,4.92-13.17,13.37-13.47C229,190.54,229.86,190.47,230.11,188.89Z"/><path class="cls-10" d="M275.9,342.45c-1.66-.72-2.64-4-5.18-1.36-2-.1-3.64.85-5.42,1.47a5.18,5.18,0,0,1-3.75-.12c-4.46-.19-6.9-3.17-9-6.56-1.43-.95-3.18.61-4.57-.59l-4.64,0a10.56,10.56,0,0,1-10.11-7.07c-1.06-2.71-2.43-3.78-5.37-4-5.63-.38-10.77-5.6-11.26-11.29-.23-2.71-1.08-4.18-3.76-5.18-6.2-2.31-9.34-7.92-8.68-14.72.15-1.5.61-3-.5-4.35-.37-1.75,1.12-1.91,2.13-2.26,20.85-7.36,39.19-19,55.66-33.51,18.19-16.06,33.25-34.67,44.24-56.44,1.3-2.57,2.09-5.48,4.37-7.51a12.44,12.44,0,0,1,12.39,8.24,19.9,19.9,0,0,0,8.08,10.2,11.36,11.36,0,0,1,4.92,8.49c.49,4.42,1.63,8.37,4.83,11.76s3.64,7.59,2.84,11.93a15.63,15.63,0,0,0,1.48,10.08,14.33,14.33,0,0,1,0,12.87,13.71,13.71,0,0,0-1.14,10.07c1.29,4.43-.15,8.44-2.93,11.85A17.8,17.8,0,0,0,336,295.67a12.13,12.13,0,0,1-5.91,10,15.37,15.37,0,0,0-6.47,8.66,13.07,13.07,0,0,1-8.59,8.71,16.18,16.18,0,0,0-8.64,6.5A13.93,13.93,0,0,1,295,336.08a14.19,14.19,0,0,0-9.31,4.06C282.89,342.66,279.75,344.23,275.9,342.45Z"/><path class="cls-11" d="M310,189.44l4.35-10.62c6.16-4.43,15.89-1.52,18.89,6,1.08,2.69,2.33,3.68,5.23,4,6.79.82,11.09,5.59,11.92,12.57A3.88,3.88,0,0,0,353,205c7.19,3,9.89,7.53,9.15,15.25a11.92,11.92,0,0,0,.35,4.46c6.35,4,9.75,11.35,4.71,18.91-.87,1.31-.31,2,.57,2.71a12.7,12.7,0,0,1,.11,19.42c-1.23,1-.87,1.77-.21,3,4.07,7.41,2.42,13.84-4.71,18.38-1.31.84-1.66,1.44-1.27,3.07,2,8.14-1.4,14-9.35,16.45-1.64.51-2.13,1.37-2.18,3-.25,8.05-5.06,12.92-12.94,13.16-1.58,0-2.37.25-2.81,2.16a12.61,12.61,0,0,1-15.8,9.6c-2-.49-2.91-.06-4,1.77-3.85,6.48-11.4,8.36-18,4.55-1.6-.93-2.19-.64-3.35.58-4.93,5.23-12.35,5.55-17.42.94a12.37,12.37,0,0,0,10.45-4.11,9.9,9.9,0,0,1,7.59-3.12,12.94,12.94,0,0,0,11.77-6.28,15.3,15.3,0,0,1,8.76-6.7,12.29,12.29,0,0,0,8.52-9,12.22,12.22,0,0,1,5.6-7.67,12.68,12.68,0,0,0,6.66-12.11c-.12-3.35,1.55-6,3.65-8.43,3.43-3.91,5.18-8.25,3.39-13.4-1.1-3.17-.23-6,1.14-8.73a14,14,0,0,0-.07-13.63,13.22,13.22,0,0,1-1.24-9.41c1-4.57.32-9.08-3.14-12.36-3.13-3-4-6.59-4.34-10.47a12.06,12.06,0,0,0-5.95-9.82,14.6,14.6,0,0,1-6.6-8.45C320.28,193.08,316,190.1,310,189.44Z"/><path class="cls-12" d="M261.55,342.44c2,.05,4,.07,5.49-1.79,1.28-1.58,2.46.11,3.68.44A9,9,0,0,1,261.55,342.44Z"/><path class="cls-13" d="M339.14,249.25c.54,4-1.39,7.59-4.14,10.78-1.88,2.18-4.4,3-6.9,1.16s-2.63-4.36-1.16-7c4-7.05,3.29-9.39-3.83-13.66-2.2-1.32-3.43-3.18-2.65-6,1.68-6.09-.34-11.15-8.18-11.31a4.64,4.64,0,0,1-4.82-5c0-2.72,1.63-4.52,5-4.8,11.68-1,19,9.13,18.88,17.84a3.34,3.34,0,0,0,1.26,3.1C337.25,238,339.38,242.88,339.14,249.25Z"/><path class="cls-13" d="M283.7,323.55c-4.77-.28-10.08-3.12-13.41-9.33-1.38-2.58-.54-4.67,1.48-6.27s4.36-1.7,6.33.46a11.68,11.68,0,0,1,1.31,1.43c3.34,5.49,9.64,4.67,12.9.94,1.91-2.19,4.29-3.19,6.87-1.26,2.35,1.76,3,4.15,1.29,6.81C297,321.61,291.93,323.65,283.7,323.55Z"/><g id="RliWSE.tif"><path class="cls-14" d="M258.72,120a64.73,64.73,0,0,1,18.95.3,6.79,6.79,0,0,1,2.38.49,74.35,74.35,0,0,1,8.86,3.54c10.4,5.56,19.1,13,24.94,23.35,2.06,3.67,4.06,7.43,4.33,11.78,0,0,6.06,26-21.79,46.05a72.44,72.44,0,0,0-9.36,8.14,53.06,53.06,0,0,1-8.85,7,16,16,0,0,1-7,3,9.58,9.58,0,0,0-1.42.25,69.18,69.18,0,0,1-20,1.79l-1.19-.79c8.42-1.4,16.06-6.88,21.65-12.58,4.32-4.4,9.47-7.54,14.63-10.67A30.47,30.47,0,0,0,294,193.2c4.12-5.87,9.54-15.53,8.61-24.74-.41-1.45-.32-3-.59-4.41-2.93-15.63-11.63-27.29-24.8-35.85a72.91,72.91,0,0,0-18.5-8.19"/><path class="cls-15" d="M289.94,198.74a17.54,17.54,0,0,1-4.57,3.41c-4.3,2.51-8.66,5-12.28,8.45-2.51,2.42-5.1,4.75-7.72,7.05a38.71,38.71,0,0,1-14.4,7.9h0a2.5,2.5,0,0,1-1.21.2,66.68,66.68,0,0,1-20.45-5.22c-2.74-1.18-5.59-2.21-7.56-4.65a35.75,35.75,0,0,1-9.5-9.69,139,139,0,0,0-9.78-13.14,32.79,32.79,0,0,1-7.67-20.78,50.61,50.61,0,0,1,2.6-15.81c.5-1.06.36-2.29.92-3.35,3.8-7.18,5.83-11.18,12.88-15.4.77-.47,4.55-3.13,5.56-2.86,4.44-2.26,9.2-3.59,13.93-5,6.55-2,13.08-4,19.12-7.33,3-.78,5.8-2.16,8.91-2.49a24.18,24.18,0,0,1,4.58.81,61.82,61.82,0,0,1,26.63,17.23c7.73,8.65,12.49,18.67,13.09,30.43A31,31,0,0,1,289.94,198.74Z"/><path class="cls-16" d="M290.52,151.85c-2.27-.25-3.69,1.5-5.26,2.76-1.3,1-2.11,1.1-3.29-.17-2.49-2.68-5.12-5.23-7.74-7.77-.92-.9-1.1-1.47.12-2.28a24,24,0,0,0,3.44-2.85c2.32-2.27,2.37-4.5.28-7.3a5,5,0,0,0-7-1.44,47.27,47.27,0,0,0-4.35,3.29c-1.15.9-2.14,1-3.22-.19a43.43,43.43,0,0,0-3.53-3.52c-2.22-2-4.68-1.94-7.13.21s-2.77,4.59-1.21,7.08a16.7,16.7,0,0,0,3,3.3c1,.89,1,1.53-.05,2.33-3.64,2.75-7.27,5.51-10.87,8.32-1.11.86-1.74.27-2.5-.5-2.91-3-5.83-5.93-8.82-8.81-1.56-1.49-3.39-2.52-5.64-1.47s-3.73,2.43-4.13,4.89a5,5,0,0,0,1.7,4.44c2.39,2.43,4.74,4.91,7.25,7.21,1.54,1.42,1.94,2.27-.12,3.66-3.36,2.27-6.53,4.83-9.71,7.37-1.29,1-2.24,1.08-3.34-.23a44.11,44.11,0,0,0-3.34-3.36c-2.58-2.42-5.31-2.46-7.73-.18s-2.69,5.29-.42,8a27.8,27.8,0,0,0,2.81,2.83c1,.89.95,1.44-.13,2.29-3.79,3-3.8,6.49-.13,9.49,2.15,1.76,4.64,1.69,7.37-.86,1.82-1.71,2.75-1.2,4.15.31,2.31,2.5,4.75,4.88,7.22,7.24,1,1,1.13,1.61-.15,2.44a21.87,21.87,0,0,0-3.09,2.51,5.16,5.16,0,0,0-.49,7.34c2.33,2.82,5.06,3.28,7.83,1.18,1.72-1.3,3.41-3.74,5.17-3.57,2.06.19,3.38,2.93,5.08,4.5.86.79,1.61,1.7,2.5,2.44,2.52,2.1,5.45,2,7.62-.22,2.51-2.55,2.59-5.31.16-7.91-1.65-1.76-3.37-3.45-5.12-5.11-.8-.76-.83-1.32.05-2l11.42-8.81c1.06-.83,1.67,0,2.3.67,2.89,2.87,5.74,5.78,8.65,8.63,3.57,3.5,8.47,2.11,9.83-2.73.6-2.14-.41-3.74-1.76-5.14q-3.79-4-7.76-7.76c-1-1-1.11-1.46.18-2.37q5.37-3.83,10.47-8c1.25-1,1.88-.8,2.81.25a37.83,37.83,0,0,0,3.53,3.52c2.7,2.36,5.54,2.19,7.91-.36s2.4-5.18-.2-7.86l-.53-.53c-2.8-2.82-2.79-2.81,0-5.42,1.64-1.51,2.5-3.29,1.58-5.55C295.09,153.3,293.14,151.83,290.52,151.85Z"/><path class="cls-15" d="M241.44,169.78c-.51.33-1,.61-1.47.95-3.57,2.7-7.1,5.45-10.71,8.09-1.11.81-.87,1.35-.08,2.14,2.78,2.74,5.58,5.48,8.27,8.3.87.91,1.47.7,2.29.07,3.69-2.82,7.4-5.61,11.09-8.42.65-.49,1.13-1,.35-1.83l-8.83-8.8A4.27,4.27,0,0,0,241.44,169.78Z"/><path class="cls-15" d="M250.6,162.3c.57.67.81,1,1.1,1.29,2.81,2.82,5.64,5.63,8.44,8.46.6.6,1.09.87,1.9.24,3.65-2.87,7.31-5.71,11-8.47,1.16-.85,1-1.39.1-2.27q-4.11-4-8.1-8.11c-.77-.8-1.41-1-2.32-.27q-5.49,4.28-11,8.49A10.06,10.06,0,0,1,250.6,162.3Z"/></g><g id="tqiY8I.tif"><path class="cls-17" d="M186.9,302.59a53.74,53.74,0,0,0,13,18.72c9,8.45,19.36,13.83,31.88,14.54a7,7,0,0,1,3.88,12.49c-12.42,10-26.32,11.72-41.3,7.24-.69-.21-1.36-.49-2-.74.37-.23.22-.38,0-.65a32.82,32.82,0,0,1-2.18-2.52A45.73,45.73,0,0,1,181,327.14,41.34,41.34,0,0,1,186.9,302.59Z"/><path class="cls-18" d="M177.78,244.47a41,41,0,0,0,.62-15.41,60.06,60.06,0,0,0-5.78-19.39,45.38,45.38,0,0,0-13.53-16.39c-2.53-1.89-4-4.12-3.38-7.43a6.53,6.53,0,0,1,5.41-5.53,39,39,0,0,1,17.12,1.11,45.77,45.77,0,0,1,16.87,9.37c-.93.26-.14.71,0,1a44.54,44.54,0,0,1-2.32,37.5,42.73,42.73,0,0,1-9.64,12.24,18.5,18.5,0,0,1-5.23,3.63Z"/><path class="cls-17" d="M177.78,244.47c0,.22.06.44.1.66a62.29,62.29,0,0,1-3.46,10.15,6.69,6.69,0,0,0,1.81,7.64c2.44,2.14,5.09,2.31,8,1.11a45.43,45.43,0,0,0,10.86-6.63,59.6,59.6,0,0,1,1.9,8.05,37.8,37.8,0,0,1,.21,9.26c-.41,3.51-.5,7.18-3.26,10-1.07,1.1-2.48,1.22-3.72,1.82a60.22,60.22,0,0,0-18.9-10.31,57.07,57.07,0,0,0-11.48-2.56c-4.13-.47-6.21-2.7-5.86-6.78.31-3.63-.87-6.19-4.08-7.94a5.34,5.34,0,0,1-2.86-5.47,5.81,5.81,0,0,1,3.72-5A45.3,45.3,0,0,1,177.78,244.47Z"/><path class="cls-19" d="M195.07,257.4A45.43,45.43,0,0,1,184.21,264c-2.89,1.2-5.54,1-8-1.11a6.69,6.69,0,0,1-1.81-7.64,62.29,62.29,0,0,0,3.46-10.15,18.5,18.5,0,0,0,5.23-3.63,42.73,42.73,0,0,0,9.64-12.24,44.54,44.54,0,0,0,2.32-37.5c-.1-.25-.89-.7,0-1a49.44,49.44,0,0,1,6.51,7.21c9.37,13.71,11,28.27,4.7,43.66a42.84,42.84,0,0,1-7.17,11.56c-.27.3-.56.55-.31,1C197.14,254.76,196.33,256.34,195.07,257.4Z"/><path class="cls-20" d="M186.9,302.59A41.34,41.34,0,0,0,181,327.14a45.73,45.73,0,0,0,9.18,24.53,32.82,32.82,0,0,0,2.18,2.52c.24.27.39.42,0,.65-15.89-6.83-25.18-18.8-27.61-35.91a40,40,0,0,1,6.59-28.69c1.87-2.81,4.56-4,7.58-3.39s4.93,2.71,5.48,6A60,60,0,0,0,186.9,302.59Z"/><path class="cls-20" d="M195.07,257.4c1.26-1.06,2.07-2.64,3.77-3.18,9.63,8.42,15.1,18.92,15.83,31.77a37.18,37.18,0,0,1-1.29,11.68,6.6,6.6,0,0,1-5.55,5.11c-2.83.51-5.34-.32-6.82-2.82a57.53,57.53,0,0,0-10.81-13.44c1.24-.6,2.65-.72,3.72-1.82,2.76-2.81,2.85-6.48,3.26-10a37.8,37.8,0,0,0-.21-9.26A59.6,59.6,0,0,0,195.07,257.4Z"/><path class="cls-19" d="M156.39,218.58a4.58,4.58,0,0,1,1.54,1.82c1.9,3.09,3.74,6.22,5.66,9.31a4,4,0,0,1,0,4.53A3.88,3.88,0,0,1,159.4,236c-2.43-.41-4.88-.75-7.31-1.2a3.91,3.91,0,0,1-3.4-4.48c.4-3.07.87-6.14,1.5-9.18A4,4,0,0,1,156.39,218.58Z"/><path class="cls-18" d="M224.12,311.54a3.82,3.82,0,0,1-.45,6.66c-3.46,1.72-7,3.32-10.52,4.9a3.6,3.6,0,0,1-3.86-.46,3.69,3.69,0,0,1-1.5-4c.68-2.57,1.35-5.15,2.14-7.69a3.73,3.73,0,0,1,4.11-2.55c3.15.74,6.24,1.73,9.35,2.64A3,3,0,0,1,224.12,311.54Z"/><path class="cls-19" d="M222.15,246.37a3,3,0,0,1,1.46,2.61c-.07,2.13-.13,4.27-.31,6.39a3,3,0,0,1-3.23,2.87c-2.42,0-4.84-.21-7.26-.35a2.91,2.91,0,0,1-2.78-2.37,3,3,0,0,1,1.16-3.35c2.42-1.85,4.82-3.73,7.23-5.6A3.12,3.12,0,0,1,222.15,246.37Z"/></g></svg>