<svg id="Layer_1" data-name="Layer 1" xmlns="http://www.w3.org/2000/svg" viewBox="0 0 500 500"><defs><style>.cls-1{fill:#f7f9fa;}.cls-2{fill:#d7e2e2;}.cls-3{fill:#eaf4f4;}.cls-4{fill:#ddeded;}.cls-5{fill:#c3d8d6;}.cls-6{fill:#fe6593;}.cls-7{fill:#2c4e5f;}.cls-8{fill:#1e363f;}.cls-9{fill:#1e1e24;}.cls-10{fill:#ff954d;}.cls-11{fill:#f17f29;}</style></defs><g id="_33qBOi.tif" data-name="33qBOi.tif"><path class="cls-1" d="M249.89,359.32c.43.32.86.63,1.28,1,33.64,27.44,72,38.76,115.12,33.48,33.38-4.08,61.86-18.45,85.86-41.83,5.76-5.6,5.59-12.75-.14-18.46A146.24,146.24,0,0,0,413.57,306c.51-1.76,1.95-2.84,3.06-4.14a165.61,165.61,0,0,0,34.07-64.35c2-7.22-1.35-13.66-8.56-15.66-5.53-1.52-11.19-2.6-16.84-3.57-13.13-2.25-26.35-2.44-39.62-1.64-1.39.08-3.41,1-3.66-1.65,5.11-26.05,3.89-51.89-2.75-77.51-2.1-8.11-8.44-11.44-16.69-9.14-22.29,6.2-42.5,16.6-61,30.36-.57-1.36-1.18-2.7-1.72-4.06a183.64,183.64,0,0,0-39.95-61.69c-2.09-2.12-4.17-4.22-7.38-4.48-4.78-1.26-8.47.64-11.74,3.94a183.37,183.37,0,0,0-40,61c-.74,1.82-.55,4.38-3.1,5.18a171.89,171.89,0,0,0-59.19-29.75c-10.15-2.89-15.66.38-18.18,10.53A176.71,176.71,0,0,0,118,215c.09,2.27-1.2,1.95-2.87,1.85-18.69-1.07-37.23-.24-55.45,4.59-8.9,2.35-12.57,8.4-10,17.16a168.42,168.42,0,0,0,27.8,55.8c3,3.92,6.76,7.21,9,11.65A147.33,147.33,0,0,0,48,333.52c-5.67,5.59-5.93,12.7-.3,18.11,37.19,35.74,81.44,49.21,132.19,40.88C206.28,388.18,229.46,376.51,249.89,359.32Z"/><path class="cls-2" d="M252.49,88.45c3.21.26,5.29,2.36,7.38,4.48a183.64,183.64,0,0,1,39.95,61.69c.54,1.36,1.15,2.7,1.72,4.06a188,188,0,0,1,11.13,65.19,186,186,0,0,1-2.12,24.29,179.27,179.27,0,0,1-14.72,49.77,172.35,172.35,0,0,1-32.55,48.45c-1.75,1.81-3.19,3.91-5,6.12a5.73,5.73,0,0,0,1.34.06A179,179,0,0,0,376.25,237.8,184.71,184.71,0,0,0,382,215c.25,2.67,2.27,1.73,3.66,1.65,13.27-.8,26.49-.61,39.62,1.64,5.65,1,11.31,2.05,16.84,3.57,7.21,2,10.54,8.44,8.56,15.66a165.61,165.61,0,0,1-34.07,64.35c-1.11,1.3-2.55,2.38-3.06,4.14-5.84,4.71-10.62,10.53-16.41,15.34a168.19,168.19,0,0,1-42,25.68,154.67,154.67,0,0,1-48.3,12.26c-13.63,1.1-27.21,1.33-40.77-.77-5.39-.83-10.77-1.7-16.16-2.55v-.84c0-.26,0-.53,0-.8q0-130,0-259.92c0-1.21.08-2.42,0-3.62C249.84,88.88,251,88.53,252.49,88.45Z"/><path class="cls-3" d="M252.49,88.45c-1.47.08-2.65.43-2.52,2.31.08,1.2,0,2.41,0,3.62q0,130,0,259.92c-.82.51-3.08-1.17-2.42,1.59a175.56,175.56,0,0,1-27.7,4,167.18,167.18,0,0,1-114-36.4C99,318,92.94,311.79,86.44,306c-2.29-4.44-6.07-7.73-9-11.65a168.42,168.42,0,0,1-27.8-55.8c-2.53-8.76,1.14-14.81,10-17.16,18.22-4.83,36.76-5.66,55.45-4.59,1.67.1,3,.42,2.87-1.85,1.28,1.38.44,3.1.78,4.64A177.39,177.39,0,0,0,160.09,301a174,174,0,0,0,41.34,34.16,178.72,178.72,0,0,0,42,18.32c-.81-1-1.15-1.53-1.59-2-16-15.58-28.3-33.77-37.7-54A174.63,174.63,0,0,1,188.09,235c-1.48-22.68.55-45.14,7.44-67,1-3,3.23-5.93,2.09-9.47,2.55-.8,2.36-3.36,3.1-5.18a183.37,183.37,0,0,1,40-61C244,89.09,247.71,87.19,252.49,88.45Z"/><path class="cls-4" d="M197.62,158.53c1.14,3.54-1.13,6.46-2.09,9.47-6.89,21.88-8.92,44.34-7.44,67a174.63,174.63,0,0,0,16.1,62.51c9.4,20.22,21.67,38.41,37.7,54,.44.43.78,1,1.59,2a178.72,178.72,0,0,1-42-18.32A174,174,0,0,1,160.09,301a177.39,177.39,0,0,1-41.36-81.39c-.34-1.54.5-3.26-.78-4.64a176.71,176.71,0,0,1,2.3-75.66c2.52-10.15,8-13.42,18.18-10.53A171.89,171.89,0,0,1,197.62,158.53Z"/><path class="cls-5" d="M382,215a184.71,184.71,0,0,1-5.77,22.83A179,179,0,0,1,259.66,352.56a5.73,5.73,0,0,1-1.34-.06c1.77-2.21,3.21-4.31,5-6.12a172.35,172.35,0,0,0,32.55-48.45,179.27,179.27,0,0,0,14.72-49.77,186,186,0,0,0,2.12-24.29,188,188,0,0,0-11.13-65.19c18.54-13.76,38.75-24.16,61-30.36,8.25-2.3,14.59,1,16.69,9.14C385.91,163.08,387.13,188.92,382,215Z"/><path class="cls-5" d="M250,355.94c5.39.85,10.77,1.72,16.16,2.55,13.56,2.1,27.14,1.87,40.77.77A154.67,154.67,0,0,0,355.21,347a168.19,168.19,0,0,0,42-25.68c5.79-4.81,10.57-10.63,16.41-15.34A146.24,146.24,0,0,1,452,333.48c5.73,5.71,5.9,12.86.14,18.46-24,23.38-52.48,37.75-85.86,41.83-43.11,5.28-81.48-6-115.12-33.48-.42-.34-.85-.65-1.28-1Z"/><path class="cls-4" d="M250,355.94l-.09,3.38c-20.43,17.19-43.61,28.86-70,33.19-50.75,8.33-95-5.14-132.19-40.88-5.63-5.41-5.37-12.52.3-18.11A147.33,147.33,0,0,1,86.44,306c6.5,5.77,12.57,12,19.38,17.44a167.18,167.18,0,0,0,114,36.4,175.56,175.56,0,0,0,27.7-4l2.44-.79Z"/><path class="cls-6" d="M250,355.1l-2.44.79c-.66-2.76,1.6-1.08,2.42-1.59C250,354.57,250,354.84,250,355.1Z"/></g><path class="cls-7" d="M450.65,302.15l-65.83,25.29a17.94,17.94,0,0,1-11.6-.19l-62-22.25a26.77,26.77,0,0,1-17.08-31.13c.05-.22.1-.44.16-.66,0,0,.82-3.76,6-6.75a19.63,19.63,0,0,1,20,.58l59.37,36.5,69.38-16.38c4.17-1.64,5.46-1.17,9.67-2.69s8.6-.21,12.57,1.5,7.87,3.87,12.18,4.26c3.56.32,7.11-.61,10.68-.78a3.33,3.33,0,0,1,1.57.19,2.59,2.59,0,0,1,1.25,2.66,5.83,5.83,0,0,1-3.11,4.3,16.17,16.17,0,0,1-5.25,1.6q-3.56.63-7.13,1.13a41.2,41.2,0,0,1-9.14.51c-2.6-.21-5.14-1.14-7.75-1.09-6.56.12-10,2.15-14,3.4Z"/><path class="cls-8" d="M347.05,298.09c.05-.22.1-.44.16-.67,0,0,.81-3.76,6-6.75a18.21,18.21,0,0,1,3.23-1.44L320.38,267a19.63,19.63,0,0,0-20-.58c-5.22,3-6,6.75-6,6.75-.06.22-.11.44-.16.66A26.77,26.77,0,0,0,311.27,305l40,14.35A26.64,26.64,0,0,1,347.05,298.09Z"/><path class="cls-7" d="M408.28,174.49l-15.42,68.82a18,18,0,0,1-6.59,9.55L333.43,292.1a26.76,26.76,0,0,1-35.38-3c-.16-.16-.31-.33-.47-.5,0,0-2.68-2.76-2.27-8.76a19.65,19.65,0,0,1,11.56-16.33l63.28-29.19,25.33-65.1c.95-4.37,1.53-6.93,2.6-11.28,1-4.2,4.59-7.27,8.2-9.63s7.59-4.42,10.3-7.78c2.24-2.79,3.44-6.26,5.27-9.33a3.52,3.52,0,0,1,1-1.2,2.62,2.62,0,0,1,2.91.44,5.83,5.83,0,0,1,1.86,5,16.24,16.24,0,0,1-1.59,5.26q-1.44,3.3-3,6.56a41.31,41.31,0,0,1-4.63,7.89c-1.62,2-3.8,3.65-5.2,5.85-3.54,5.52-3.77,9.53-4.94,13.55Z"/><path class="cls-8" d="M335.07,269.43s-2.67-2.76-2.27-8.76a19,19,0,0,1,4.91-11.42l-30.84,14.23a19.65,19.65,0,0,0-11.56,16.33c-.41,6,2.27,8.76,2.27,8.76.16.17.31.34.47.5a26.76,26.76,0,0,0,35.38,3l18.84-14a26.59,26.59,0,0,1-16.73-8.18Z"/><path class="cls-7" d="M96.54,174.49,112,243.31a18,18,0,0,0,6.58,9.55L171.4,292.1a26.75,26.75,0,0,0,35.37-3c.16-.16.32-.33.47-.5,0,0,2.68-2.76,2.27-8.76A19.65,19.65,0,0,0,198,263.48l-63.28-29.19-25.33-65.1c-.94-4.37-1.53-6.93-2.59-11.28-1-4.2-4.59-7.27-8.21-9.63s-7.59-4.42-10.3-7.78c-2.24-2.79-3.43-6.26-5.27-9.33a3.42,3.42,0,0,0-1-1.2,2.6,2.6,0,0,0-2.9.44,5.8,5.8,0,0,0-1.86,5,16.47,16.47,0,0,0,1.58,5.26c1,2.2,2,4.39,3,6.56a41.84,41.84,0,0,0,4.63,7.89c1.62,2,3.8,3.65,5.21,5.85,3.53,5.52,3.76,9.53,4.93,13.55Z"/><path class="cls-7" d="M48.81,302.15l65.83,25.29a17.94,17.94,0,0,0,11.6-.19l62-22.25a26.76,26.76,0,0,0,17.08-31.13c-.05-.22-.1-.44-.16-.66,0,0-.81-3.76-6-6.75a19.65,19.65,0,0,0-20,.58l-59.36,36.5L50.33,288.21c-4.17-1.64-5.46-2.22-9.67-3.74s-8.59-.21-12.57,1.5-7.87,3.87-12.18,4.26c-3.56.32-7.11-.61-10.68-.78a3.33,3.33,0,0,0-1.57.19,2.61,2.61,0,0,0-1.25,2.66,5.83,5.83,0,0,0,3.11,4.3,16.17,16.17,0,0,0,5.25,1.6q3.56.63,7.13,1.13a41.2,41.2,0,0,0,9.14.51c2.6-.21,5.14-1.14,7.75-1.09,6.56.12,10,2.15,14,3.4Z"/><path class="cls-8" d="M154.52,297.09c-.05-.22-.11-.44-.16-.67,0,0-.82-3.76-6-6.75a18.21,18.21,0,0,0-3.23-1.44L181.18,266a19.65,19.65,0,0,1,20-.58c5.22,3,6,6.75,6,6.75l.15.66A26.75,26.75,0,0,1,190.29,304l-39.95,14.35A26.64,26.64,0,0,0,154.52,297.09Z"/><path class="cls-8" d="M166.49,267.43s2.68-2.76,2.27-8.76a19,19,0,0,0-4.9-11.42l30.83,14.23a19.66,19.66,0,0,1,11.57,16.33c.4,6-2.28,8.76-2.28,8.76l-.46.5a26.76,26.76,0,0,1-35.38,3l-18.84-14A26.56,26.56,0,0,0,166,267.93C166.18,267.77,166.33,267.6,166.49,267.43Z"/><g id="tP7eCQ.tif"><path class="cls-7" d="M262.44,446c7.14,0,14.29.08,21.43,0a3.5,3.5,0,0,1,3.91,2.67c2.49,6.57,5.13,13.09,8,19.5a8.67,8.67,0,0,0,10.44,4.41,9.7,9.7,0,0,0,6.43-10.46c-.59-5.34-1.54-10.69-1.08-16.11-1.37-5.87-1.54-11.89-1.95-17.86-.53-7.75-7.71-13-13.78-10.35-6.81,2.95-13.29,2.1-20,0-8.36-2.6-17.09-3.9-25.39-6.77-7.16-1-14-3.3-21-4.92-8.75-2-17.43-4.34-26.13-6.55-1.16-.29-2.42-.42-3.32-1.37-6.7-.5-13-3-19.48-4.35-7.38-1.5-14.47-4.45-22.18-4.38a28,28,0,0,0-26.82,22.39c-.13.64,0,1.35-.66,1.8a35.53,35.53,0,0,0,.63,9.54c2.28,12.81,13.92,22.74,26.86,22.83,9.62.07,19.23,0,28.85.05,6.86,0,13.73,0,20.6,0,1.07,0,2.25-.31,3.09.74,1.14-.93,2.51-.75,3.83-.75l21,0Z"/><path class="cls-8" d="M143.21,423.13a36,36,0,0,1-.63-9.54c.65-.45.54-1.16.66-1.8A28.06,28.06,0,0,1,164.82,390a35.54,35.54,0,0,0-6.55-.59,28,28,0,0,0-26.82,22.39c-.13.64,0,1.35-.66,1.8a35.53,35.53,0,0,0,.63,9.54c2.28,12.81,13.92,22.74,26.86,22.83,9.62.07,19.23,0,28.85.05H189q-9.45,0-18.91,0C157.13,445.87,145.49,435.94,143.21,423.13Z"/><path class="cls-7" d="M220.05,446h1.13A8.52,8.52,0,0,0,220.05,446Z"/><path class="cls-7" d="M210.82,446.73a3.41,3.41,0,0,1,2-.73h-3.29A1.91,1.91,0,0,1,210.82,446.73Z"/><path class="cls-7" d="M207.73,446c-6.25,0-12.5,0-18.75,0h20.55A10.81,10.81,0,0,0,207.73,446Z"/><path class="cls-7" d="M212.82,446h6.7l.53,0h-5.4C214,446,213.42,446,212.82,446Z"/><path class="cls-8" d="M187.13,446c6.86,0,13.73,0,20.6,0,1.07,0,2.25-.31,3.09.74a189.65,189.65,0,0,1-8.67,21.74c-1.59,3.38-6.22,5.18-9.72,4.26-4-1.07-7.44-5.27-7.13-9.13C185.78,457.73,186.51,451.87,187.13,446Z"/><path class="cls-8" d="M235.57,396.14a14.82,14.82,0,0,1-2.32-.21q-16.92-4.23-33.85-8.51a45.2,45.2,0,0,0,.53,10.71c.9.95,2.16,1.08,3.32,1.37,8.7,2.21,17.38,4.53,26.13,6.55,7,1.62,13.86,3.94,21,4.92,1.6-1.14,3.55-1.2,5.35-1.65,14.16-3.54,28.33-7,42.5-10.51.08-3.8.9-7.57.46-11.39-4.08,1-8.14,2.16-12.25,3.08-8,1.79-15.8,4.4-23.92,5.65C262.54,396.15,249.08,399.2,235.57,396.14Z"/><path class="cls-7" d="M365.57,427.31c.68-2,1-3.14,3.95-3.14,8.13,0,16.92-7.67,18.56-15.55,2.75-13.13-.92-23.9-11.56-32.48-12.43-10-24.46-20.53-36.75-30.74a7.53,7.53,0,0,1-2.69-5.79c-.62-7.45-1.37-14.89-2.16-22.33-1-9.64-2.24-19.27-3.14-28.93a28.52,28.52,0,0,0-7.25-16.92c-4.89-5.47-11.49-7.53-18.25-9.24q-19-4.79-38-9.44c-2.31-.56-3.36-1.49-3.19-4.07.25-3.79.07-7.62.07-11.43L259,240H239.13l-6.21-2.75c0,3.81-.18,7.64.07,11.44.16,2.56-.86,3.5-3.18,4.07q-21.6,5.33-43.14,10.85a27.33,27.33,0,0,0-20.35,25.07c-.44,6.9-1.37,13.77-2.11,20.65-1.05,9.87-2.25,19.73-3.14,29.61-.27,2.95-.72,5.41-3.42,7.14a49.61,49.61,0,0,0-4.87,4.1c-10.33,8.72-20.45,17.7-31,26.07-8.57,6.77-12.89,15-12.54,26,.32,9.82,5.59,17.89,14.83,21,2.26.76,5,2.57,7.4-.12a35.53,35.53,0,0,1-.63-9.54c0-5.68-.64-11.39,3.08-16.49,2.51-3.44,6.16-5.12,9.54-7.2,10.1-6.2,20.18-12.46,30.52-18.24,8.19-4.59,11.85-11.58,13.3-20.49,2.3-14.19,5-28.32,8.15-42.47l4,78.72q16.92,4.26,33.85,8.51a14.82,14.82,0,0,0,2.32.21s9.42,3.09,27,0c8.12-1.25,15.92-3.86,23.92-5.65,4.11-.92,8.17-2,12.25-3.08q2-39.32,4-78.62l.58-.06q1.79,9.64,3.55,19.28c1.68,9.22,3.3,18.44,5,27.65,1.36,7.21,5.76,12.07,12,15.71,11,6.43,21.69,13.39,32.82,19.57,7.93,4.39,11.4,10.62,10.69,19.48a15.54,15.54,0,0,1-.2,2.4"/><path class="cls-7" d="M367.16,412.83c-1.28-5.18-3.23-10-6.9-13.95-7.26-7.73-16.15-11.06-26.66-8.86-11.88,2.48-23.63,5.6-35.35,8.79-14.17,3.5-28.34,7-42.5,10.51-1.8.45-3.75.51-5.35,1.65,8.3,2.87,17,4.17,25.39,6.77,6.75,2.1,13.23,2.95,20,0,6.07-2.63,13.25,2.6,13.78,10.35.41,6,.58,12,1.95,17.86,9.4,0,18.81.06,28.21,0a28.15,28.15,0,0,0,25.8-18.64"/><path class="cls-8" d="M279.12,409.32c14.16-3.54,28.33-7,42.5-10.51,9.47-2.58,19-5.1,28.53-7.29A26.61,26.61,0,0,0,333.6,390c-11.88,2.48-23.63,5.6-35.35,8.79-14.17,3.5-28.34,7-42.5,10.51-1.8.45-3.75.51-5.35,1.65,8.3,2.87,17,4.17,25.39,6.77,6.75,2.1,13.23,2.95,20,0a8.75,8.75,0,0,1,1.63-.5c-7.84-2.27-15.95-3.6-23.69-6.27C275.37,409.83,277.32,409.77,279.12,409.32Z"/></g><path class="cls-8" d="M265.19,247.09c.12-3.27,0-6.56,0-9.84L259,240H239.13l-6.21-2.75c0,3.22-.11,6.45,0,9.66C240,249.48,250.82,251.19,265.19,247.09Z"/><path class="cls-7" d="M283.64,180.48c-1.54-13.17-8.88-22.6-21.05-28.07-11.55-7.76-27.06,0-27.06,0-15,7-21.77,19-21.45,35.41.13,6.26-.17,12.54.07,18.8.53,13.67,6.58,24.06,18.77,30.63l6.21,2.75s5.64,2.84,16.24.82A25.91,25.91,0,0,0,259,240l6.2-2.74a33.51,33.51,0,0,0,17.57-22.06A36.94,36.94,0,0,0,284,204.94C283.89,196.78,284.58,188.53,283.64,180.48Z"/><path class="cls-9" d="M267.84,162.52s-29.48,17.41-48.77,14.4L215.13,187s-10.33-42.66,33.42-45.8c0,0,40.49.26,34.37,45.15C282.92,186.34,273.94,181.14,267.84,162.52Z"/><g id="DLrHyQ.tif"><path class="cls-10" d="M249.09,184.14a5.77,5.77,0,0,1-.77-.93L238.74,171a.41.41,0,0,1,0-.59q5.08-6.48,10.15-13c.05-.07.09-.18.2-.2a1,1,0,0,1,.09.56v25.91A.81.81,0,0,1,249.09,184.14Z"/><path class="cls-11" d="M249.09,184.14V157.21a19,19,0,0,1,1.25,1.56c3.06,3.9,6.1,7.81,9.16,11.72.12.15.12.23,0,.37L249.25,184C249.2,184,249.17,184.12,249.09,184.14Z"/></g><path d="M256.07,196.67a14.61,14.61,0,0,0,6,3.15c4.88,1.32,9.88,0,14-2.84a2.06,2.06,0,0,0,.72-2.74,2,2,0,0,0-2.74-.72,15.38,15.38,0,0,1-6.43,2.73,10.71,10.71,0,0,1-4.64-.34c-.34-.1-.67-.21-1-.33-.15-.06-.46-.19-.14-.05l-.43-.19a15.4,15.4,0,0,1-1.54-.85l-.52-.35c-.07,0-.13-.11-.21-.16-.27-.18.39.34.18.14l-.34-.28c-1.88-1.75-4.72,1.07-2.83,2.83Z"/><path d="M239.29,193.84c-.11.1-.23.18-.33.28s.44-.32.17-.14l-.21.16-.52.35a15.11,15.11,0,0,1-1.47.81l-.43.2.1,0-.31.12c-.34.11-.67.23-1,.33a10.53,10.53,0,0,1-4.63.34,15.42,15.42,0,0,1-6.44-2.73,2,2,0,0,0-2,3.46c4.1,2.79,9.1,4.16,14,2.84a14.61,14.61,0,0,0,6-3.15c1.89-1.76-.94-4.58-2.83-2.83Z"/></svg>