<svg xmlns="http://www.w3.org/2000/svg" viewBox="0 0 500 500"><defs><style>.cls-1{fill:#f7d3ae;}.cls-2{fill:#1e1e24;}.cls-3{fill:#1c6e8c;}.cls-4{fill:#145e72;}.cls-5{fill:#135668;}.cls-6{fill:#92140c;}.cls-7{fill:#7a0d0b;}.cls-8{fill:#efb681;}.cls-9{fill:#fff;}</style></defs><g id="Layer_4" data-name="Layer 4"><polygon class="cls-1" points="355.13 272.64 453.82 460.72 438.34 470.08 309.79 300.07 355.13 272.64"/><path class="cls-2" d="M435.34,465.47c2.24,3.93-.39,13-3.32,16.46-3.94,4.69-4.9,9.16-3.28,11.22,0,0,22.74,2.57,36.81,0,3.36-.62,1.73-7,.35-9.25-3.71-6.09-8-7.7-12.7-23.55"/><polygon class="cls-1" points="282.26 267.01 183.57 455.08 199.06 464.45 327.61 294.44 282.26 267.01"/><polygon class="cls-3" points="316.58 308.86 292.95 340.69 254.41 325.6 282.26 267.01 316.58 308.86"/><polygon class="cls-4" points="282.26 267.01 251.33 324.71 261.36 328.64 289.64 276 282.26 267.01"/><path class="cls-3" d="M261.36,232.41l13.55-23.62c65.51,11.85,100.73,102.93,100.73,102.93L337.72,337,288.2,276.88Z"/><path class="cls-5" d="M282.34,276.3l18.19,20.36,28.78,32.22,6.61,7.4c1.71,1.92,4.54-.92,2.82-2.83l-18.18-20.37-28.78-32.21-6.61-7.4c-1.72-1.93-4.54.91-2.83,2.83Z"/><path class="cls-2" d="M201.89,469.44a10.41,10.41,0,0,0,0-3.2l-18-17.64a77,77,0,0,1-34.61,21.11c-5.92,1.7-12.41,2.88-16.74,7.27a4,4,0,0,0-1.48,3.16h0v3.54a1.48,1.48,0,0,0,1.48,1.48h68a1.48,1.48,0,0,0,1.48-1.48V469.43Z"/><path class="cls-1" d="M180.23,371.94l4.39-76.21-43.17-30.28C146.29,291.17,152,320,157,354.14c4.52,33.92,8.16,68,10.2,102.13.74,12.37,1.52,25.49,8.21,35.81a1.21,1.21,0,0,0,2,0c1.68-2.55,1.84-6,1.87-9.17.12-10.72,2.76-15.58-1.24-32.15,0,0,1.44-43.49,2.22-78.85Z"/><path class="cls-1" d="M144.35,147.61h0s-2.44,38.47-2.77,73.5l35.72-4.32-7.44-53.69c-2.78-32.41-9.2-71.21-9.78-103.73-.12-6.55,4.53-6.85,3.2-13.26-1.21-5.82-3.44-11.38-5.65-16.9l-6.3-15.69C150,10.2,148,6.38,144.5,6c-2.43,6.66-.89,14,.24,21,3.73,23,2.75,46.44,1.77,69.71Z"/><path class="cls-6" d="M144,269.39c-1.2-17.51-1.52-33.88-1.38-48.28L178,203.05C256.1,188,290.73,213.71,290.73,213.71,302.28,274.09,265,296.29,265,296.29c-22.2-9.77-37.29-15.1-37.29-15.1-13.32,23.09-40.85,16-40.85,16Z"/><path class="cls-7" d="M265,285.29c-22.2-9.77-37.29-15.1-37.29-15.1-13.32,23.09-40.85,16-40.85,16L144,261.39c-.92-13.41-1.32-26.14-1.4-37.84-.08,13.81.27,29.3,1.4,45.84l42.88,27.78s27.53,7.11,40.85-16c0,0,15.09,5.33,37.29,15.1,0,0,29.7-17.68,27.89-64.39C291.26,272.64,265,285.29,265,285.29Z"/><path class="cls-6" d="M186.84,297.17S151,277.32,144.1,279.44l-1.5-10s15.14.37,20.43-4.32Z"/><path class="cls-7" d="M186.84,297.17S151,277.32,144.1,279.44l-1.5-10s24.38,2.28,38.87,14.21Z"/><path class="cls-6" d="M176.23,203.94c-11.14,5.66-30.14,7.62-34.49,6.28l-.16,10s17,0,22.28,4.71l18-20.49C183.73,201.94,179,202.55,176.23,203.94Z"/><path class="cls-2" d="M88.58,320.56c-1.75,5.07-5.79,8.93-9.31,13a77.07,77.07,0,0,0-11.4,17.53c-1.78,3.8-3.28,8.1-2.11,12.13,1.73,6,8.4,8.89,11.94,14,3.06,4.43,3.51,10.08,4.28,15.41s2.26,11.06,6.55,14.31c.39-7.32,5.57-13.44,11-18.41s11.42-9.65,14.52-16.28a13.59,13.59,0,0,0,1.42-7.82c-1.24-7.53-10.63-11.11-13.16-18.31-1.07-3-.78-6.35-1-9.57a32.47,32.47,0,0,0-6-17"/><path class="cls-2" d="M59.35,211.18a137.79,137.79,0,0,1,37.06-7.12c5.28-.28,10.7-.23,15.65,1.59,9,3.3,15,11.9,18.4,20.84,5.75,15.22,5.3,32,4.77,48.23-.84,26.25-39.11,21.4-39.95,47.65l-4.62.29a44.39,44.39,0,0,0-7.77-13.92c-3.42-4.11-7.56-7.55-11.52-11.15a171.74,171.74,0,0,1-21.85-24c-4-5.39-7.86-11.29-8.65-18-.84-7.21,2-14.47,6.37-20.3s10.06-10.46,15.71-15"/><path class="cls-1" d="M128.43,256.76H139l3.64,12.72s30,12.73,29.92-19.48c0-28.47-30.93-30.77-30.93-30.77L139,232.4H126.89Z"/><path class="cls-1" d="M84.05,205.19h17.78A22.85,22.85,0,0,1,124.68,228v23.79A31.21,31.21,0,0,1,93.47,283H92.41a31.21,31.21,0,0,1-31.21-31.21V228A22.85,22.85,0,0,1,84.05,205.19Z" transform="translate(-151.17 337.05) rotate(-90)"/><path class="cls-8" d="M101.32,269.91H68.64c-8.07,0-14.62-6.8-14.62-15.19v5.94c0,8.39,6.55,15.19,14.62,15.19h32.68c16.87,0,30.54-14.21,30.54-31.74,0-1.69-.16.63-.41-1C129.16,258.29,116.56,269.91,101.32,269.91Z"/><path class="cls-8" d="M106.47,275.18a13.54,13.54,0,1,1-27,0"/><path class="cls-1" d="M79.42,213.37a13.53,13.53,0,1,1,27.05,0"/><path class="cls-2" d="M58.75,224.5S76.16,254,73.15,273.27l10.07,3.94s-42.66,10.33-45.8-33.42c0,0,.26-40.48,45.15-34.37C82.57,209.42,77.37,218.4,58.75,224.5Z"/><path class="cls-9" d="M108.39,259.46V229.92s10.73.9,11,15.22S108.39,259.46,108.39,259.46Z"/><path d="M82.13,235.92h7.73a2.5,2.5,0,0,0,0-5H82.13a2.5,2.5,0,1,0,0,5Z"/><path d="M82.13,257.31h7.73a2.5,2.5,0,1,0,0-5H82.13a2.5,2.5,0,0,0,0,5Z"/><path class="cls-3" d="M86.29,315.2a56.78,56.78,0,0,0,.1,6.39,46.79,46.79,0,0,0,.13-6.7,10.82,10.82,0,0,0,4,.48l7.35-.06a.42.42,0,0,1,.31.08.41.41,0,0,1,.09.26q.32,2.89.34,5.79a.88.88,0,0,1-.23.76,1,1,0,0,1-.38.13l-1.91.34c-2.89.52-6,1-8.67-.16a1.8,1.8,0,0,1-.87-.66"/></g></svg>