<svg xmlns="http://www.w3.org/2000/svg" viewBox="0 0 500 500"><defs><style>.cls-1{fill:#a7b0b3;}.cls-2{fill:#979c9e;}.cls-3{fill:#696c6d;}.cls-4{fill:#7f8587;}.cls-5{fill:#3d4449;}</style></defs><g id="Layer_4" data-name="Layer 4"><path class="cls-1" d="M420.88,263.38c4.14-15.84,2.2-31.42-2.15-46.84-6.49-23-18-43.53-32.84-62-18.26-22.74-39.66-41.95-66.3-54.66-14.71-7-30.07-11.38-46.55-10.94,7.94-8.49,17.89-12.72,29.34-13.36,18.07-1,34.38,4.88,50,13.24a161.39,161.39,0,0,1,38.23,28.75c22.84,22.93,40.52,49.15,48.44,81,3.17,12.75,4,25.61.7,38.58C436.88,248.43,430.25,256.85,420.88,263.38Z"/><path class="cls-1" d="M388.79,290.32c-14.2,15.49-32,17.37-51.17,13.14C317.34,299,300,288.54,283.85,276a23.39,23.39,0,0,0-2.49-1.53q21.76-18.13,43.54-36.26a4.42,4.42,0,0,0,1.65-5.23c-1.2-3.76-2-7.69-3.39-11.36-5.89-15.08-15.87-25.81-32.27-29.38-2.38-.52-4.93-1.12-7.12.64q-21.67,17.4-43.31,34.83c-1.32-3.64-3.68-6.72-5.48-10.1-8.13-15.2-14.36-31.13-16-48.37-1.38-14.12-.46-28.09,8.37-40.23a45,45,0,0,1,11.5-11c12.85-6.43,26.21-7.11,40.05-3.93,25.47,5.84,46.24,19.88,65.1,37.17a186,186,0,0,1,24.69,28.22c12.05,16.62,21.5,34.49,26.57,54.48,3.12,12.33,4.56,24.78,1.76,37.43C395.46,278.24,392.34,284.35,388.79,290.32Z"/><path class="cls-2" d="M295.86,262.28a163.39,163.39,0,0,0-17.92-15.53c-12-8.88-20.51-20.95-25.25-36.14A37.8,37.8,0,0,1,251,202a147.7,147.7,0,0,0-2.72-21.08,91.48,91.48,0,0,1-2.19-22.75c.52-16.34,6-30.28,20.13-39.82,6.61-5.67,13.2-11.37,19.82-17,5-4.31,10.12-8.58,15.18-12.87A44.74,44.74,0,0,1,320.79,77.2c-17-3.46-33.25-2.07-47.2,11.26-5.06,4.29-10.13,8.56-15.18,12.87-6.62,5.65-13.21,11.35-19.81,17-14.1,9.54-19.62,23.48-20.14,39.82-.56,17.5,4.22,33.92,11.57,49.52,16.46,34.93,41.15,62.69,74.37,82.52,15.83,9.45,32.76,16,51.69,15.36a50.36,50.36,0,0,0,10.44-1.39c-12.23-2.36-23.65-7.46-34.55-14A187.2,187.2,0,0,1,295.86,262.28Z"/><path class="cls-2" d="M421.59,262.48a1.52,1.52,0,0,1-.19-.58A1.52,1.52,0,0,0,421.59,262.48Z"/><path class="cls-2" d="M127.76,398.05c-16.56-9.13-27.93-23-33.71-41.55-1.78-5.7-2.53-11.53-.89-17.14a97.94,97.94,0,0,1-5.75-35.3c.52-16.34,6-30.28,20.14-39.82q9.9-8.51,19.81-17c5-4.31,10.12-8.58,15.18-12.87a44.9,44.9,0,0,1,19.61-11.26c-17-3.46-33.25-2.07-47.19,11.26-5.06,4.29-10.14,8.56-15.18,12.87q-9.93,8.49-19.82,17c-14.1,9.54-19.61,23.48-20.13,39.82-.56,17.51,4.22,33.92,11.56,49.52,16.46,34.93,41.15,62.7,74.37,82.52,15.83,9.46,32.77,16,51.7,15.36a50.35,50.35,0,0,0,10.43-1.39c-12.23-2.35-23.65-7.46-34.54-14A185.94,185.94,0,0,1,127.76,398.05Z"/><path class="cls-2" d="M263,408.37a1.65,1.65,0,0,1-.19-.58A1.65,1.65,0,0,0,263,408.37Z"/><path class="cls-3" d="M138.37,237.88a119.24,119.24,0,0,0-14-2.68c-3.14-.41-6.42.81-9.44-.85l-7.6,6.43q-3.8,3.21-7.58,6.44-5,4.25-9.91,8.51L80,264.24A14.23,14.23,0,0,0,82,263.5c10.06-5.19,20.74-6.08,31.63-4.51q6.84-5.9,13.69-11.77C131,244.09,134.7,241,138.37,237.88Z"/><path class="cls-4" d="M388.79,290.32c3.55-6,6.67-12.08,8.19-19,2.8-12.65,1.36-25.1-1.76-37.43-5.07-20-14.52-37.86-26.57-54.48A186,186,0,0,0,344,151.23c-18.86-17.29-39.63-31.33-65.1-37.17-13.84-3.18-27.2-2.5-40.05,3.93,4.53-4.77,9.86-8.63,14.84-12.89C260,99.62,266.57,94.3,273,88.91c16.48-.44,31.84,3.92,46.55,10.94,26.64,12.71,48,31.92,66.3,54.66,14.85,18.5,26.35,39,32.84,62,4.35,15.42,6.29,31,2.15,46.84C410.29,272.49,399.84,281.76,388.79,290.32Z"/><path class="cls-1" d="M229.93,436.6c-8.61,9.79-19.56,14.46-32.47,14.86-18.93.6-35.87-5.9-51.7-15.36-33.22-19.82-57.91-47.59-74.37-82.52-7.34-15.6-12.12-32-11.56-49.52.52-16.34,6-30.28,20.13-39.82A14.23,14.23,0,0,0,82,263.5c10.46-5.39,21.59-6.16,32.91-4.32,15.9,2.57,30.31,9.08,43.84,17.62,17.46,11,32.32,25,45.23,41,16.12,20,28.49,42,33.73,67.48C241.45,403.27,241,420.77,229.93,436.6ZM101.56,328.41c-1.57,1.74-3.92,2.45-5.34,4.52-5.15,7.5-4.64,15.65-2.17,23.57,6.4,20.52,19.61,35.35,39.17,44.32,11.53,5.3,20.45,3.69,27.92-4.58,3.94-1.72,6.42-5.32,9.83-7.66,9.77-6.69,12.18-15.87,9.23-26.69-6-22.2-19.91-37.95-40.81-47.26-6.59-2.94-13.95-4.46-20.75-.32A90.71,90.71,0,0,0,101.56,328.41Z"/><path class="cls-4" d="M229.93,436.6c11-15.83,11.52-33.33,7.82-51.32-5.24-25.44-17.61-47.44-33.73-67.48-12.91-16-27.77-30-45.23-41-13.53-8.54-27.94-15.05-43.84-17.62-11.32-1.84-22.45-1.07-32.91,4.32a14.23,14.23,0,0,1-2.08.74q9.9-8.51,19.82-17c5-4.31,10.12-8.58,15.18-12.87,3,1.66,6.3.44,9.44.85a123.9,123.9,0,0,1,43.77,14.51c22.63,12.39,41.48,29.17,57.64,49.07,13.12,16.18,23.78,33.85,31,53.5,6.43,17.59,9.75,35.52,6.11,54.24-.17.88-.32,1.73.54,2.37q-15.78,13.35-31.56,26.7A10.08,10.08,0,0,1,229.93,436.6Z"/><path class="cls-1" d="M263.42,408.89c-.86-.64-.71-1.49-.54-2.37,3.64-18.72.32-36.65-6.11-54.24-7.18-19.65-17.84-37.32-31-53.5-16.16-19.9-35-36.68-57.64-49.07A123.9,123.9,0,0,0,124.4,235.2c-3.14-.41-6.42.81-9.44-.85,15.58-14.89,34-14.88,53.21-9.85,15.18,4,28.78,11.37,41.48,20.47,1.72,1.22,3.5,2.34,5.25,3.51a205.86,205.86,0,0,1,42.62,45.66C265.79,307,273,320.4,277.76,335a102.79,102.79,0,0,1,5.6,31.29c.11,13.3-3,25.86-12.39,36A91.67,91.67,0,0,1,263.42,408.89Z"/><path class="cls-2" d="M127.76,398.05c-16.56-9.13-27.93-23-33.71-41.55-1.78-5.7-2.53-11.53-.89-17.14a97.94,97.94,0,0,1-5.75-35.3c.52-16.34,6-30.28,20.14-39.82q9.9-8.51,19.81-17c5-4.31,10.12-8.58,15.18-12.87a44.9,44.9,0,0,1,19.61-11.26c-17-3.46-33.25-2.07-47.19,11.26-5.06,4.29-10.14,8.56-15.18,12.87q-9.93,8.49-19.82,17c-14.1,9.54-19.61,23.48-20.13,39.82-.56,17.51,4.22,33.92,11.56,49.52,16.46,34.93,41.15,62.7,74.37,82.52,15.83,9.46,32.77,16,51.7,15.36a50.35,50.35,0,0,0,10.43-1.39c-12.23-2.35-23.65-7.46-34.54-14A185.94,185.94,0,0,1,127.76,398.05Z"/><path class="cls-2" d="M263,408.37a1.65,1.65,0,0,1-.19-.58A1.65,1.65,0,0,0,263,408.37Z"/><path class="cls-3" d="M138.37,237.88a119.24,119.24,0,0,0-14-2.68c-3.14-.41-6.42.81-9.44-.85l-7.6,6.43q-3.8,3.21-7.58,6.44-5,4.25-9.91,8.51L80,264.24A14.23,14.23,0,0,0,82,263.5c10.06-5.19,20.74-6.08,31.63-4.51q6.84-5.9,13.69-11.77C131,244.09,134.7,241,138.37,237.88Z"/><path class="cls-5" d="M257.52,294.14a205.86,205.86,0,0,0-42.62-45.66l25.56-20.8q21.66-17.42,43.31-34.83c2.19-1.76,4.74-1.16,7.12-.64,16.4,3.57,26.38,14.3,32.27,29.38,1.43,3.67,2.19,7.6,3.39,11.36a4.42,4.42,0,0,1-1.65,5.23q-21.79,18.1-43.54,36.26Z"/><path class="cls-4" d="M161.14,396.24c-7.47,8.27-16.39,9.88-27.92,4.58-19.56-9-32.77-23.8-39.17-44.32-2.47-7.92-3-16.07,2.17-23.57,1.42-2.07,3.77-2.78,5.34-4.52,10-3.55,19.11-.7,27.7,4.3a73.25,73.25,0,0,1,28.24,29.46C163.19,372.92,166.74,384.16,161.14,396.24Z"/><path class="cls-5" d="M161.14,396.24c5.6-12.08,2.05-23.32-3.64-34.07a73.25,73.25,0,0,0-28.24-29.46c-8.59-5-17.7-7.85-27.7-4.3a90.71,90.71,0,0,1,17.08-14.1c6.8-4.14,14.16-2.62,20.75.32,20.9,9.31,34.77,25.06,40.81,47.26,3,10.82.54,20-9.23,26.69C167.56,390.92,165.08,394.52,161.14,396.24Z"/><path class="cls-3" d="M297.24,92.4a119.79,119.79,0,0,0-14-2.67c-3.14-.41-6.42.81-9.44-.85l-7.6,6.42-7.58,6.44q-5,4.24-9.91,8.52l-9.91,8.51a16.16,16.16,0,0,0,2.09-.74c10.05-5.2,20.74-6.09,31.62-4.52,4.56-3.92,9.12-7.86,13.7-11.77Q291.71,97.06,297.24,92.4Z"/></g></svg>